<svg width="215" height="184" viewBox="0 0 215 184" fill="none" xmlns="http://www.w3.org/2000/svg">
<path d="M145.464 8.02291C145.464 8.02291 116.088 45.2332 69.085 23.0383C22.0821 0.843433 -24.9201 60.9008 15.5539 97.4584C56.0279 134.016 16.4211 154.104 43.9179 176.509C75.1698 201.974 102.378 150.336 127.185 162.087C181.935 188.021 222.496 177.755 213.357 147.725C197.314 95.0123 176.799 91.583 192.467 64.1649C208.134 36.7467 173.556 -20.2626 145.464 8.02291Z" fill="#019748" fill-opacity="0.1"/>
<path d="M95.2749 124.775C95.2749 150.042 115.755 170.522 141.022 170.522C146.906 170.532 152.736 169.4 158.188 167.188C158.3 167.201 158.413 167.207 158.526 167.207H178.549C179.193 167.208 179.831 167.081 180.427 166.835C181.022 166.588 181.563 166.227 182.019 165.771C182.474 165.316 182.836 164.775 183.082 164.179C183.329 163.584 183.455 162.946 183.455 162.301V141.894C185.654 136.455 186.779 130.642 186.77 124.775C186.77 99.5077 166.29 79.0273 141.022 79.0273C115.755 79.0273 95.2749 99.5077 95.2749 124.775Z" fill="#34AC6D"/>
<path d="M159.334 92.3478C159.334 124.047 133.64 149.74 101.941 149.74C94.5599 149.753 87.2463 148.332 80.4066 145.556C80.2658 145.573 80.1241 145.581 79.9824 145.581H54.8626C54.0542 145.582 53.2536 145.423 52.5066 145.114C51.7596 144.804 51.0809 144.351 50.5093 143.779C49.9377 143.208 49.4843 142.529 49.1751 141.782C48.866 141.035 48.7071 140.235 48.7075 139.426V113.824C45.9491 107.001 44.5369 99.7081 44.5487 92.3482C44.5487 60.6494 70.242 34.9561 101.941 34.9561C133.64 34.9561 159.334 60.649 159.334 92.3478Z" fill="#99D5B6"/>
<path d="M75.3245 103.993C79.9182 103.993 83.6422 100.269 83.6422 95.6751C83.6422 91.0814 79.9182 87.3574 75.3245 87.3574C70.7308 87.3574 67.0068 91.0814 67.0068 95.6751C67.0068 100.269 70.7308 103.993 75.3245 103.993Z" fill="white"/>
<path d="M99.4451 103.993C104.039 103.993 107.763 100.269 107.763 95.6751C107.763 91.0814 104.039 87.3574 99.4451 87.3574C94.8514 87.3574 91.1274 91.0814 91.1274 95.6751C91.1274 100.269 94.8514 103.993 99.4451 103.993Z" fill="white"/>
<path d="M124.399 103.993C128.993 103.993 132.717 100.269 132.717 95.6751C132.717 91.0814 128.993 87.3574 124.399 87.3574C119.805 87.3574 116.081 91.0814 116.081 95.6751C116.081 100.269 119.805 103.993 124.399 103.993Z" fill="white"/>
</svg>
