<svg width="40" height="40" viewBox="0 0 40 40" fill="none" xmlns="http://www.w3.org/2000/svg">
<circle cx="20" cy="20" r="20" fill="white"/>
<circle cx="19.9999" cy="19.9999" r="17.3913" fill="#DEEEE2"/>
<mask id="mask0_4389:10078" style="mask-type:alpha" maskUnits="userSpaceOnUse" x="2" y="2" width="36" height="36">
<circle cx="19.9999" cy="19.9999" r="17.3913" fill="#DEEEE2"/>
</mask>
<g mask="url(#mask0_4389:10078)">
<path d="M16.7773 19.4672H23.2208V25.3737H16.7773V19.4672Z" fill="#FFD4D0"/>
<path d="M23.2208 19.4672V21.366C23.1201 21.4653 23.0152 21.5599 22.906 21.6499C21.0914 23.1373 18.4467 23.0148 16.7773 21.366V19.4672H23.2208Z" fill="#FFC3BD"/>
<path d="M30.7385 37.7238V27.9083C30.7385 26.7227 29.9608 25.6775 28.8252 25.3368L25.3689 24.2999L23.7581 23.7629L21.6103 28.0586L19.9994 31.2803L18.3885 28.0586L16.2407 23.7629L14.6298 24.2999L11.1736 25.3368C10.038 25.6775 9.26025 26.7227 9.26025 27.9083V37.7238" fill="white"/>
<path d="M19.9997 21.0782C17.8142 21.0782 15.9325 19.5356 15.5039 17.3926C15.2799 16.2728 15.1671 15.1335 15.1671 13.9915V11.7883C15.1671 9.11929 17.3308 6.95569 19.9997 6.95569C22.6687 6.95569 24.8323 9.11929 24.8323 11.7883V13.9915C24.8323 15.1335 24.7195 16.2727 24.4956 17.3925C24.067 19.5356 22.1853 21.0782 19.9997 21.0782Z" fill="#FFD4D0"/>
<path d="M17.826 12.174C17.5859 12.174 17.3912 12.5633 17.3912 13.0435C17.3912 13.5237 17.5859 13.9131 17.826 13.9131C18.0661 13.9131 18.2608 13.5237 18.2608 13.0435C18.2605 12.5635 18.066 12.1745 17.826 12.174Z" fill="#CC9E99"/>
<path d="M22.9151 12.174C22.675 12.174 22.4803 12.5633 22.4803 13.0435C22.4803 13.5237 22.675 13.9131 22.9151 13.9131C23.1552 13.9131 23.3499 13.5237 23.3499 13.0435C23.3497 12.5635 23.1551 12.1745 22.9151 12.174Z" fill="#CC9E99"/>
<path d="M15.1666 12.4869H14.6297C13.74 12.4869 13.0188 13.2081 13.0188 14.0978C13.0188 14.9875 13.74 15.7087 14.6297 15.7087H15.2521C15.1954 15.1384 15.1668 14.566 15.1666 13.9915V12.4869Z" fill="#FFC3BD"/>
<path d="M25.3693 12.4869H24.8324V13.9915C24.8324 14.5653 24.8039 15.1377 24.7469 15.7087H25.3693C26.259 15.7087 26.9802 14.9875 26.9802 14.0978C26.9802 13.2081 26.259 12.4869 25.3693 12.4869Z" fill="#FFC3BD"/>
<path d="M15.1671 12.487V10.3392C15.1671 8.55983 16.3692 7.11743 17.8519 7.11743L17.7574 7.45759C17.231 9.35251 16.3442 11.0745 15.1671 12.487Z" fill="#4B4B4B"/>
<path d="M24.832 12.487V8.79439C24.832 7.83968 24.0581 7.0658 23.1034 7.0658C22.9621 7.0658 22.8213 7.08311 22.6842 7.11741V8.72828C22.6842 8.72828 23.655 11.0745 24.832 12.487Z" fill="#4B4B4B"/>
<path d="M22.6845 7.11713V8.728H15.1671C15.166 8.07016 15.4079 7.43507 15.8464 6.94463C15.8806 6.90503 15.9168 6.86677 15.9538 6.82985C16.457 6.32605 17.1398 6.04308 17.8519 6.04321H20.0917C21.0642 6.04328 21.9968 6.42955 22.6845 7.11713Z" fill="#4B4B4B"/>
<path d="M14.6297 32.8912C15.5193 32.8912 16.2405 32.17 16.2405 31.2803C16.2405 30.3906 15.5193 29.6694 14.6297 29.6694C13.74 29.6694 13.0188 30.3906 13.0188 31.2803C13.0188 32.17 13.74 32.8912 14.6297 32.8912Z" fill="#4D5B58"/>
<path d="M14.6295 31.8172C14.333 31.8172 14.0925 31.5767 14.0925 31.2802V23.7628C14.0925 22.5766 15.0542 21.615 16.2404 21.615H16.7773V22.6889H16.2404C15.6472 22.6889 15.1664 23.1697 15.1664 23.7628V31.2802C15.1664 31.5767 14.926 31.8172 14.6295 31.8172Z" fill="#6C7F7B"/>
<path d="M25.9055 28.104V23.7628C25.9042 22.5771 24.9434 21.6163 23.7577 21.615H23.2208V22.6889H23.7577C24.3505 22.6896 24.831 23.17 24.8316 23.7628V28.104C23.2827 28.3678 22.1491 29.709 22.1469 31.2802V33.428C22.1469 33.7246 22.3873 33.965 22.6838 33.965H23.7577V32.8911H23.2208V31.2802C23.2208 30.094 24.1824 29.1324 25.3686 29.1324C26.5548 29.1324 27.5164 30.094 27.5164 31.2802V32.8911H26.9795V33.965H28.0534C28.3499 33.965 28.5903 33.7246 28.5903 33.428V31.2802C28.5881 29.709 27.4545 28.3678 25.9055 28.104Z" fill="#6C7F7B"/>
<path d="M19.4618 31.2802H20.5357V37.7236H19.4618V31.2802Z" fill="#CFCFCD"/>
<path d="M17.3142 32.3539H18.3881V33.4278H17.3142V32.3539Z" fill="#CFCFCD"/>
<path d="M17.3142 36.6498H18.3881V37.7237H17.3142V36.6498Z" fill="#CFCFCD"/>
<path d="M13.0184 34.5017H14.0923V37.7234H13.0184V34.5017Z" fill="#CFCFCD"/>
<path d="M25.905 35.0387H26.9789V37.7235H25.905V35.0387Z" fill="#CFCFCD"/>
<path d="M18.3887 28.0585L19.9995 31.2802L21.6104 28.0585L23.7582 23.7628L23.2213 22.152L19.9995 25.3737L16.7778 22.152L16.2408 23.7628L18.3887 28.0585Z" fill="#019748"/>
<path d="M16.7778 22.152L19.9995 25.3737L18.3887 28.0585L16.2408 23.7628L16.7778 22.152Z" fill="#2AC674"/>
<path d="M23.2211 22.152L19.9994 25.3737L21.6103 28.0585L23.7581 23.7628L23.2211 22.152Z" fill="#2AC674"/>
</g>
<path d="M15.6522 17.3913L16.5218 16.5217H23.4783L24.3479 17.3913C24.4934 18.6956 23.8277 21.3043 20.0009 21.3043C16.5233 21.3043 15.6528 18.6956 15.6522 17.3913Z" fill="#FCF1F2"/>
<path d="M24.7826 16.5217H23.4783C23.4783 20 22.1739 20.8696 20 21.3043C23.4783 21.3043 24.3478 18.6956 24.7826 16.5217Z" fill="#F4E5E0"/>
</svg>
