<svg width="31" height="30" viewBox="0 0 31 30" fill="none" xmlns="http://www.w3.org/2000/svg">
<path d="M20.6406 21.1509V29.5153H6.57812C6.08084 29.5153 5.60393 29.3178 5.2523 28.9661C4.90067 28.6145 4.70313 28.1376 4.70312 27.6403V21.1542C4.70315 20.3263 4.97718 19.5216 5.48246 18.8658C5.98774 18.2099 6.69587 17.7397 7.49641 17.5284L11.7503 16.4062H13.6253L17.8511 17.5261C18.6508 17.738 19.358 18.2084 19.8625 18.864C20.367 19.5196 20.6406 20.3237 20.6406 21.1509Z" fill="#59AA70"/>
<path d="M20.6403 25.7812V21.1509C20.6403 20.3237 20.3667 19.5196 19.8622 18.864C19.3576 18.2084 18.6505 17.738 17.8508 17.5261L15.2225 16.8281C14.7904 17.5507 14.5623 18.3769 14.5625 19.2187C14.5625 19.4674 14.6613 19.7058 14.8371 19.8817C15.0129 20.0575 15.2514 20.1562 15.5 20.1562H15.0312C14.8333 20.157 14.6407 20.2205 14.481 20.3374C14.3214 20.4544 14.2028 20.6189 14.1423 20.8074C14.0819 20.9958 14.0826 21.1986 14.1445 21.3866C14.2063 21.5746 14.326 21.7383 14.4866 21.8541L14.0938 25.7812H20.6403Z" fill="#4C885D"/>
<path d="M6.10937 27.6403V21.1542C6.1094 20.3263 6.38343 19.5216 6.88871 18.8658C7.39399 18.2099 8.10212 17.7397 8.90266 17.5284L13.1566 16.4062H11.7503L7.49641 17.5284C6.69587 17.7397 5.98774 18.2099 5.48246 18.8658C4.97718 19.5216 4.70315 20.3263 4.70312 21.1542V27.6403C4.70313 28.1376 4.90067 28.6145 5.2523 28.9661C5.60393 29.3178 6.08084 29.5153 6.57812 29.5153H7.98437C7.48709 29.5153 7.01018 29.3178 6.65855 28.9661C6.30692 28.6145 6.10937 28.1376 6.10937 27.6403Z" fill="#4C885D"/>
<path d="M19.9498 10.7939C19.7209 10.5469 19.5632 10.2425 19.4933 9.91302C19.4234 9.58358 19.4439 9.24136 19.5527 8.92266C19.7568 8.35755 19.7741 7.7419 19.6023 7.1662C19.4304 6.5905 19.0783 6.08513 18.5979 5.72437C18.3705 5.56277 18.184 5.3503 18.0532 5.10388C17.9224 4.85746 17.851 4.5839 17.8446 4.305C17.8446 3.28756 17.4404 2.3118 16.721 1.59236C16.0016 0.872925 15.0258 0.46875 14.0084 0.46875H11.3684C10.3509 0.46875 9.37517 0.872925 8.65573 1.59236C7.9363 2.3118 7.53212 3.28756 7.53212 4.305C7.52574 4.5839 7.45431 4.85746 7.32354 5.10388C7.19276 5.3503 7.00624 5.56277 6.77884 5.72437C6.2984 6.08513 5.94636 6.5905 5.77449 7.1662C5.60261 7.7419 5.61997 8.35755 5.824 8.92266C5.93288 9.24136 5.95346 9.58359 5.88356 9.91304C5.81366 10.2425 5.65588 10.5469 5.42696 10.7939C5.16108 11.0929 4.9623 11.4453 4.84401 11.8275C4.72572 12.2097 4.69066 12.6128 4.74118 13.0097C4.84159 13.6999 5.18965 14.33 5.72044 14.7825C6.25122 15.2349 6.92848 15.4789 7.62587 15.4688H17.7509C18.448 15.4785 19.1248 15.2345 19.6553 14.7822C20.1858 14.3298 20.5337 13.7 20.6342 13.0102C20.6849 12.6133 20.65 12.2102 20.532 11.8279C20.4139 11.4456 20.2154 11.0931 19.9498 10.7939Z" fill="#4B4B4B"/>
<path d="M13.625 16.4063L13.3503 16.6809C13.1745 16.8567 12.9361 16.9554 12.6875 16.9554C12.4389 16.9554 12.2005 16.8567 12.0247 16.6809L11.75 16.4063V13.5938H13.625V16.4063Z" fill="#FFD4D0"/>
<path d="M12.6875 14.5312C11.5686 14.5312 10.4956 14.0868 9.70439 13.2956C8.91322 12.5044 8.46875 11.4314 8.46875 10.3125V5.15625H16.9062V10.3125C16.9062 11.4314 16.4618 12.5044 15.6706 13.2956C14.8794 14.0868 13.8064 14.5312 12.6875 14.5312Z" fill="#FFD4D0"/>
<path d="M16.9062 10.7812V7.96875H17.375C17.6236 7.96875 17.8621 8.06752 18.0379 8.24334C18.2137 8.41915 18.3125 8.65761 18.3125 8.90625V9.375C18.3125 9.74796 18.1643 10.1056 17.9006 10.3694C17.6369 10.6331 17.2792 10.7812 16.9062 10.7812Z" fill="#FFD4D0"/>
<path d="M24.875 20.1562H15.5L15.0312 24.8438H25.3438L24.875 20.1562Z" fill="#4B4B4B"/>
<path d="M16.4375 17.3438H23.9375V21.0938C23.9375 22.0883 23.5424 23.0421 22.8391 23.7454C22.1359 24.4487 21.1821 24.8438 20.1875 24.8438C19.1929 24.8438 18.2391 24.4487 17.5359 23.7454C16.8326 23.0421 16.4375 22.0883 16.4375 21.0938V17.3438Z" fill="#FFD4D0"/>
<path d="M15.9688 19.2188H16.4375V21.0938H15.9688C15.7201 21.0938 15.4817 20.995 15.3058 20.8192C15.13 20.6433 15.0312 20.4049 15.0312 20.1562C15.0312 19.9076 15.13 19.6692 15.3058 19.4933C15.4817 19.3175 15.7201 19.2188 15.9688 19.2188Z" fill="#FFD4D0"/>
<path d="M24.4062 21.1104H23.9375V19.2354H24.4062C24.6549 19.2354 24.8933 19.3341 25.0692 19.5099C25.245 19.6858 25.3438 19.9242 25.3438 20.1729C25.3438 20.4215 25.245 20.6599 25.0692 20.8358C24.8933 21.0116 24.6549 21.1104 24.4062 21.1104Z" fill="#FFD4D0"/>
<path d="M23.9375 19.2188H22.0625L21.125 18.2812L20.1875 19.2188H16.4375C16.1889 19.2188 15.9504 19.12 15.7746 18.9442C15.5988 18.7683 15.5 18.5299 15.5 18.2812C15.5 17.038 15.9939 15.8458 16.8729 14.9667C17.752 14.0876 18.9443 13.5938 20.1875 13.5938C21.4307 13.5938 22.623 14.0876 23.5021 14.9667C24.3811 15.8458 24.875 17.038 24.875 18.2812C24.875 18.5299 24.7762 18.7683 24.6004 18.9442C24.4246 19.12 24.1861 19.2188 23.9375 19.2188Z" fill="#4B4B4B"/>
<path d="M22.5166 24.8584H17.8291C16.8345 24.8584 15.8807 25.2535 15.1775 25.9567C14.4742 26.66 14.0791 27.6138 14.0791 28.6084V29.5314H26.2666V28.6084C26.2666 27.6138 25.8715 26.66 25.1683 25.9567C24.465 25.2535 23.5112 24.8584 22.5166 24.8584Z" fill="#FFD15C"/>
<path d="M15.9834 29.5311C16.3538 29.5273 16.7078 29.3774 16.9684 29.1141C17.229 28.8508 17.3751 28.4953 17.3751 28.1249V27.1874C17.3757 26.856 17.2591 26.5352 17.0458 26.2816C16.8325 26.0281 16.5364 25.8582 16.2099 25.802C15.8834 25.7459 15.5475 25.8071 15.2618 25.9749C14.9761 26.1426 14.7589 26.4061 14.6489 26.7186H14.5889C14.2518 27.2911 14.0738 27.9433 14.0732 28.6077V29.5311H15.9834Z" fill="#EBC158"/>
<path d="M19.25 24.8438H21.125V25.3125C21.125 25.5611 21.0262 25.7996 20.8504 25.9754C20.6746 26.1512 20.4361 26.25 20.1875 26.25C19.9389 26.25 19.7004 26.1512 19.5246 25.9754C19.3488 25.7996 19.25 25.5611 19.25 25.3125V24.8438Z" fill="#FFD4D0"/>
<path d="M15.0312 25.7812C14.7413 25.7819 14.4587 25.8724 14.2223 26.0403C13.9859 26.2082 13.8074 26.4452 13.7113 26.7188H8.46875C8.22011 26.7188 7.98165 26.62 7.80584 26.4442C7.63002 26.2683 7.53125 26.0299 7.53125 25.7812V24.8438H4.71875V27.6562C4.71875 28.1535 4.91629 28.6304 5.26792 28.9821C5.61956 29.3337 6.09647 29.5312 6.59375 29.5312H15.0458C15.4162 29.5274 15.7702 29.3776 16.0308 29.1143C16.2914 28.851 16.4375 28.4955 16.4375 28.125V27.1875C16.4375 26.8145 16.2893 26.4569 16.0256 26.1931C15.7619 25.9294 15.4042 25.7812 15.0312 25.7812Z" fill="#FFD4D0"/>
<path d="M8 29.5312C7.50272 29.5312 7.02581 29.3337 6.67417 28.9821C6.32254 28.6304 6.125 28.1535 6.125 27.6562V24.8438H4.71875V27.6562C4.71875 28.1535 4.91629 28.6304 5.26792 28.9821C5.61956 29.3337 6.09647 29.5312 6.59375 29.5312H8Z" fill="#FFC3BD"/>
<path d="M9.87604 10.3125V5.15625H8.46979V10.3125C8.46642 10.9269 8.59803 11.5346 8.85532 12.0925C9.11261 12.6505 9.4893 13.1451 9.95877 13.5415C10.4282 13.9378 10.979 14.2262 11.5722 14.3863C12.1654 14.5464 12.7865 14.5743 13.3917 14.468C12.4092 14.3024 11.517 13.7942 10.8735 13.0335C10.23 12.2729 9.87658 11.3089 9.87604 10.3125Z" fill="#FFC3BD"/>
<path d="M17.375 4.6875L16.9062 7.96875L14.5625 6.09375L13.723 6.57328C12.1229 7.48781 10.3118 7.96883 8.46875 7.96875L8 4.6875H17.375Z" fill="#4B4B4B"/>
<path d="M18.3125 21.473C18.4368 21.473 18.556 21.4236 18.644 21.3357C18.7319 21.2478 18.7812 21.1285 18.7812 21.0042V20.625C18.7812 20.5007 18.7319 20.3815 18.644 20.2935C18.556 20.2056 18.4368 20.1562 18.3125 20.1562C18.1882 20.1562 18.069 20.2056 17.981 20.2935C17.8931 20.3815 17.8438 20.5007 17.8438 20.625V21.0042C17.8438 21.1285 17.8931 21.2478 17.981 21.3357C18.069 21.4236 18.1882 21.473 18.3125 21.473Z" fill="#CC9E99"/>
<path d="M6.14743 13.0097C6.09691 12.6128 6.13197 12.2097 6.25026 11.8275C6.36855 11.4453 6.56733 11.0929 6.83321 10.7939C7.06209 10.5469 7.21984 10.2425 7.28974 9.91302C7.35964 9.58358 7.33908 9.24136 7.23025 8.92266C7.02622 8.35755 7.00886 7.7419 7.18074 7.1662C7.35261 6.5905 7.70465 6.08513 8.18509 5.72437C8.41249 5.56277 8.59901 5.3503 8.72979 5.10388C8.86056 4.85746 8.93199 4.5839 8.93837 4.305C8.93837 3.28756 9.34255 2.3118 10.062 1.59236C10.7814 0.872925 11.7572 0.46875 12.7746 0.46875H11.3684C10.3509 0.46875 9.37517 0.872925 8.65573 1.59236C7.9363 2.3118 7.53212 3.28756 7.53212 4.305C7.52574 4.5839 7.45431 4.85746 7.32354 5.10388C7.19276 5.3503 7.00624 5.56277 6.77884 5.72437C6.2984 6.08513 5.94636 6.5905 5.77449 7.1662C5.60261 7.7419 5.61997 8.35755 5.824 8.92266C5.93283 9.24136 5.95339 9.58358 5.88349 9.91302C5.81359 10.2425 5.65584 10.5469 5.42696 10.7939C5.16108 11.0929 4.9623 11.4453 4.84401 11.8275C4.72572 12.2097 4.69066 12.6128 4.74118 13.0097C4.84159 13.6999 5.18965 14.33 5.72044 14.7825C6.25122 15.2349 6.92848 15.4789 7.62587 15.4688H9.03212C8.33473 15.4789 7.65747 15.2349 7.12669 14.7825C6.5959 14.33 6.24784 13.6999 6.14743 13.0097Z" fill="#4B4B4B"/>
<path d="M22.0625 21.473C22.1868 21.473 22.306 21.4236 22.394 21.3357C22.4819 21.2478 22.5312 21.1285 22.5312 21.0042V20.625C22.5312 20.5007 22.4819 20.3815 22.394 20.2935C22.306 20.2056 22.1868 20.1562 22.0625 20.1562C21.9382 20.1562 21.819 20.2056 21.731 20.2935C21.6431 20.3815 21.5938 20.5007 21.5938 20.625V21.0042C21.5938 21.1285 21.6431 21.2478 21.731 21.3357C21.819 21.4236 21.9382 21.473 22.0625 21.473Z" fill="#CC9E99"/>
<path d="M18.9197 23.3003C19.0726 23.4895 19.2659 23.6422 19.4855 23.7471C19.705 23.852 19.9453 23.9064 20.1886 23.9064C20.4319 23.9064 20.6721 23.852 20.8917 23.7471C21.1113 23.6422 21.3046 23.4895 21.4575 23.3003C21.5429 23.2118 21.5901 23.0934 21.589 22.9705C21.588 22.8476 21.5387 22.7301 21.4518 22.6432C21.3649 22.5562 21.2473 22.5069 21.1244 22.5059C21.0015 22.5048 20.8831 22.5521 20.7947 22.6374C20.7292 22.7386 20.6394 22.8218 20.5336 22.8794C20.4277 22.937 20.3091 22.9672 20.1886 22.9672C20.0681 22.9672 19.9494 22.937 19.8436 22.8794C19.7377 22.8218 19.6479 22.7386 19.5825 22.6374C19.4941 22.5521 19.3757 22.5048 19.2528 22.5059C19.1299 22.5069 19.0123 22.5562 18.9254 22.6432C18.8385 22.7301 18.7892 22.8476 18.7881 22.9705C18.787 23.0934 18.8343 23.2118 18.9197 23.3003Z" fill="#CC9E99"/>
<path d="M10.8125 9.375V8.90625C10.8125 8.78193 10.7631 8.6627 10.6752 8.57479C10.5873 8.48689 10.4681 8.4375 10.3438 8.4375C10.2194 8.4375 10.1002 8.48689 10.0123 8.57479C9.92439 8.6627 9.875 8.78193 9.875 8.90625V9.375C9.875 9.49932 9.92439 9.61855 10.0123 9.70646C10.1002 9.79436 10.2194 9.84375 10.3438 9.84375C10.4681 9.84375 10.5873 9.79436 10.6752 9.70646C10.7631 9.61855 10.8125 9.49932 10.8125 9.375Z" fill="#CC9E99"/>
<path d="M15.0312 9.84375C15.1556 9.84375 15.2748 9.79436 15.3627 9.70646C15.4506 9.61855 15.5 9.49932 15.5 9.375V8.90625C15.5 8.78193 15.4506 8.6627 15.3627 8.57479C15.2748 8.48689 15.1556 8.4375 15.0312 8.4375C14.9069 8.4375 14.7877 8.48689 14.6998 8.57479C14.6119 8.6627 14.5625 8.78193 14.5625 8.90625V9.375C14.5625 9.49932 14.6119 9.61855 14.6998 9.70646C14.7877 9.79436 14.9069 9.84375 15.0312 9.84375Z" fill="#CC9E99"/>
<path d="M12.6886 13.5128C12.9243 13.5133 13.1577 13.4671 13.3755 13.377C13.5932 13.2869 13.791 13.1546 13.9575 12.9878C14.0429 12.8993 14.0901 12.7809 14.089 12.658C14.088 12.5351 14.0387 12.4176 13.9518 12.3307C13.8649 12.2437 13.7473 12.1944 13.6244 12.1934C13.5015 12.1923 13.3831 12.2396 13.2947 12.3249C13.1338 12.4854 12.9158 12.5755 12.6886 12.5755C12.4613 12.5755 12.2434 12.4854 12.0825 12.3249C11.9941 12.2396 11.8757 12.1923 11.7528 12.1934C11.6299 12.1944 11.5123 12.2437 11.4254 12.3307C11.3385 12.4176 11.2892 12.5351 11.2881 12.658C11.287 12.7809 11.3343 12.8993 11.4197 12.9878C11.5861 13.1546 11.7839 13.2868 12.0017 13.3769C12.2195 13.467 12.4529 13.5132 12.6886 13.5128Z" fill="#CC9E99"/>
</svg>
