<svg width="31" height="30" viewBox="0 0 31 30" fill="none" xmlns="http://www.w3.org/2000/svg">
<path d="M27.5047 9.7665H13.4272C12.9581 9.76644 12.5099 9.57231 12.1891 9.23011L10.3748 7.29578C10.0534 6.95327 9.60452 6.75921 9.13481 6.75977H3.22496C2.28741 6.75977 1.52734 7.51983 1.52734 8.45739V27.3903C1.52734 28.3289 2.28821 29.0898 3.22682 29.0898H27.5014C28.44 29.0898 29.2009 28.3289 29.2009 27.3903V11.4642C29.2009 10.5271 28.4417 9.7673 27.5047 9.7665Z" fill="#0B5C1C"/>
<path d="M5.59082 0.59375H26.2221V19.0664H5.59082V0.59375Z" fill="#DBD8DD"/>
<path d="M4.50781 2.30859H24.5109V20.1534H4.50781V2.30859Z" fill="#EEEFEE"/>
<path d="M6.76855 4.57764H22.2488V5.38985H6.76855V4.57764Z" fill="#FFD15C"/>
<path d="M6.76953 7.15771H22.2497V7.96993H6.76953V7.15771Z" fill="#FFD15C"/>
<path d="M6.76953 9.73877H22.2497V10.551H6.76953V9.73877Z" fill="#FFD15C"/>
<path d="M28.8033 12.8066H13.4251C12.9572 12.8066 12.51 12.9998 12.1892 13.3404L10.3741 15.2674C10.0534 15.6081 9.60618 15.8012 9.13821 15.8012H2.19768C1.26013 15.8013 0.500062 16.5613 0.5 17.4988C0.5 17.5504 0.502359 17.6019 0.507015 17.6533L1.3851 27.861C1.46493 28.7361 2.1988 29.4061 3.07762 29.4061H27.6493C28.5282 29.4061 29.2621 28.736 29.3418 27.8607L30.4928 14.659C30.5783 13.7254 29.8907 12.8992 28.957 12.8137C28.9059 12.8091 28.8546 12.8067 28.8033 12.8066Z" fill="#59AA70"/>
</svg>
