<svg width="31" height="30" viewBox="0 0 31 30" fill="none" xmlns="http://www.w3.org/2000/svg">
<circle cx="15.5" cy="15" r="15" fill="#019748" fill-opacity="0.1"/>
<path d="M4.5 11.203L15.4321 24.6546L14.3645 17.6085L10.9482 11.203L7.66541 9.92188L4.5 11.203Z" fill="#99E9F8"/>
<path d="M7.48535 11.203L15.4319 24.6546L14.3643 17.6085L10.948 11.203L7.66522 9.92188L7.48535 11.203Z" fill="#87CDF3"/>
<path d="M19.9155 11.203L16.4992 17.6085L15.4316 24.6546L26.3637 11.203L22.5578 9.92188L19.9155 11.203Z" fill="#6FADEF"/>
<path d="M15.4321 9.92188L10.9482 11.203L15.4321 24.6546L19.916 11.203L15.4321 9.92188Z" fill="#6FADEF"/>
<path d="M15.4316 9.92188V24.6546L19.9155 11.203L15.4316 9.92188Z" fill="#4D8EE8"/>
<path d="M17.9943 8H15.4321H12.8699L10.6279 9.60137L10.9482 11.2027H15.4321H19.9159L20.2362 9.60137L17.9943 8Z" fill="#87CDF3"/>
<path d="M20.2358 9.60137L17.9939 8H15.4316V11.2027H19.9155L20.2358 9.60137Z" fill="#6FADEF"/>
<path d="M26.364 11.2027L22.0313 8H17.9941L19.9158 11.2027H26.364Z" fill="#4D8EE8"/>
<path d="M12.8699 8H8.83268L4.5 11.2027H10.9482L12.8699 8Z" fill="#87CDF3"/>
<path d="M12.8697 8H10.4609L7.48535 11.2027H10.948L12.8697 8Z" fill="#6FADEF"/>
</svg>
