<svg width="31" height="30" viewBox="0 0 31 30" fill="none" xmlns="http://www.w3.org/2000/svg">
<path d="M15.4821 0.93525C15.4144 0.938434 15.3482 0.956283 15.288 0.987533C15.288 0.987533 9.72116 3.7643 2.77919 4.6899C2.66644 4.70547 2.5632 4.76153 2.48874 4.84762C2.41428 4.9337 2.37369 5.04393 2.37452 5.15774V14.9979C2.37452 21.026 5.67482 24.6017 8.92878 26.5903C12.1827 28.5788 15.4299 29.0576 15.4299 29.0576C15.4761 29.0645 15.523 29.0645 15.5691 29.0576C15.5691 29.0576 18.8163 28.5788 22.0703 26.5903C25.3242 24.6017 28.6245 21.026 28.6245 14.9979V5.15774C28.6254 5.04393 28.5848 4.9337 28.5103 4.84762C28.4358 4.76153 28.3326 4.70547 28.2199 4.6899C21.2779 3.7643 15.711 0.987533 15.711 0.987533C15.6404 0.95098 15.5616 0.932976 15.4821 0.93525Z" fill="#59AA70"/>
<path d="M15.4991 6.56201C10.8448 6.56201 7.06348 10.3433 7.06348 14.9976C7.06348 19.652 10.8448 23.4379 15.4991 23.4379C20.1535 23.4379 23.9348 19.652 23.9348 14.9976C23.9348 10.3433 20.1535 6.56201 15.4991 6.56201Z" fill="#FFD15C"/>
<path d="M14.046 10.3131C13.9301 10.3245 13.8226 10.3786 13.7444 10.4649C13.6662 10.5513 13.623 10.6636 13.623 10.78V13.1265H11.2811C11.1568 13.1261 11.0374 13.175 10.9491 13.2626C10.8609 13.3501 10.811 13.4691 10.8105 13.5935V16.4069C10.811 16.5312 10.8609 16.6502 10.9491 16.7377C11.0374 16.8253 11.1568 16.8742 11.2811 16.8738H13.623V19.2203C13.6233 19.2819 13.6357 19.3429 13.6595 19.3997C13.6834 19.4565 13.7182 19.5081 13.762 19.5515C13.8058 19.5948 13.8577 19.6292 13.9147 19.6525C13.9718 19.6758 14.0329 19.6875 14.0945 19.6872H16.9034C17.0277 19.6877 17.1471 19.6387 17.2354 19.5512C17.3236 19.4636 17.3735 19.3446 17.374 19.2203V16.8738H19.7168C19.8411 16.8742 19.9605 16.8253 20.0488 16.7377C20.137 16.6502 20.1869 16.5312 20.1874 16.4069V13.5935C20.1869 13.4691 20.137 13.3501 20.0488 13.2626C19.9605 13.175 19.8411 13.1261 19.7168 13.1265H17.374V10.78C17.3735 10.6557 17.3236 10.5367 17.2354 10.4491C17.1471 10.3615 17.0277 10.3127 16.9034 10.3131H14.0945C14.0784 10.3123 14.0622 10.3123 14.046 10.3131Z" fill="#FFFEFE"/>
</svg>
