<svg width="40" height="40" viewBox="0 0 40 40" fill="none" xmlns="http://www.w3.org/2000/svg">
<circle cx="20" cy="20" r="20" fill="white"/>
<circle cx="19.9999" cy="19.9999" r="17.3913" fill="#DEEEE2"/>
<path d="M14.8535 30.4349C11.9328 30.4349 9.56519 28.1143 9.56519 25.2517V14.7493C9.56519 11.8868 11.9328 9.56616 14.8535 9.56616C17.7742 9.56616 20.1419 11.8867 20.1419 14.7493V25.2517C20.1419 28.1143 17.7742 30.4349 14.8535 30.4349Z" fill="#DFDFEF"/>
<path d="M20.1417 14.7494V25.2513C20.1417 28.1138 17.7739 30.4346 14.8532 30.4346C14.572 30.4346 14.2954 30.4132 14.0259 30.3714C16.5532 29.9819 18.486 27.8377 18.486 25.2513V14.7494C18.486 13.3176 17.8942 12.0221 16.9374 11.0839C16.1649 10.3272 15.1548 9.80282 14.0259 9.6292C14.2955 9.58742 14.5721 9.56604 14.8533 9.56604C16.3136 9.56604 17.6359 10.1461 18.5927 11.0839C19.5499 12.0222 20.1417 13.3176 20.1417 14.7494Z" fill="#CDD3E8"/>
<path d="M20.1419 20.0005H9.56519V14.7493C9.56519 11.8868 11.9328 9.56616 14.8535 9.56616C17.7742 9.56616 20.1419 11.8867 20.1419 14.7493V20.0005Z" fill="#019748"/>
<path d="M20.1412 14.7496V20.0006H18.4854V14.7496C18.4854 13.3178 17.8936 12.0224 16.9368 11.0841C16.1436 10.3063 15.1333 9.82308 14.0343 9.62972C14.8117 9.49997 15.6816 9.56974 16.4384 9.80416C16.939 9.95925 17.4174 10.1862 17.8506 10.477C18.1169 10.6558 18.3639 10.8604 18.5921 11.0841C19.0674 11.55 19.4653 12.1291 19.7255 12.7318C19.8748 13.0775 19.9922 13.4616 20.0585 13.8317C20.1128 14.1298 20.1412 14.4362 20.1412 14.7496Z" fill="#027E3D"/>
<path d="M19.6241 30.0365C17.0735 28.9977 15.8651 26.129 16.9249 23.6291L20.8136 14.4575C21.8735 11.9577 24.8004 10.7733 27.351 11.8121C29.9016 12.8509 31.11 15.7196 30.0501 18.2195L26.1615 27.391C25.1016 29.8909 22.1747 31.0753 19.6241 30.0365Z" fill="#FFD15C"/>
<path d="M30.0497 18.2202L26.1613 27.3915C25.1014 29.8913 22.1742 31.0758 19.6237 30.037C19.3781 29.9369 19.1445 29.8199 18.9246 29.6875C21.2758 30.2462 23.7577 29.0612 24.7153 26.8025L28.6038 17.6313C29.1339 16.3809 29.0967 15.0391 28.6086 13.8794C28.2141 12.9438 27.5261 12.1266 26.6046 11.5735C26.8554 11.6328 27.105 11.7126 27.3505 11.8126C28.6258 12.332 29.5658 13.3088 30.0541 14.4681C30.5427 15.628 30.5799 16.9699 30.0497 18.2202Z" fill="#FFB509"/>
<path d="M28.1066 22.8052L18.87 19.0433L20.8143 14.4575C21.8742 11.9577 24.8011 10.7733 27.3517 11.8121C29.9023 12.8509 31.1108 15.7196 30.0509 18.2194L28.1066 22.8052Z" fill="#DFDFEF"/>
<path d="M30.0507 18.2201L28.1065 22.8057L26.6606 22.2168L28.6048 17.6312C29.135 16.3809 29.0977 15.0391 28.6096 13.8794C28.2049 12.918 27.5016 12.1366 26.6134 11.5769C27.3404 11.7401 28.0742 12.1104 28.6482 12.5843C29.028 12.8978 29.3618 13.2661 29.6324 13.6742C29.7988 13.9251 29.9387 14.1916 30.0551 14.4681C30.2977 15.0441 30.4308 15.6913 30.4349 16.3101C30.4372 16.6652 30.3975 17.0423 30.3184 17.3891C30.2555 17.6686 30.1668 17.9463 30.0507 18.2201Z" fill="#CDD3E8"/>
</svg>
