<svg width="88" height="90" viewBox="0 0 88 90" fill="none" xmlns="http://www.w3.org/2000/svg">
<circle cx="44" cy="44" r="44" fill="#F2F5F9"/>
<g filter="url(#filter0_d_4389:10110)">
<circle cx="45" cy="44" r="35" fill="#FF6B6B"/>
</g>
<path fill-rule="evenodd" clip-rule="evenodd" d="M66.7958 44.6763C67.5047 42.5422 67.8848 40.4437 67.8848 38.4392C67.8853 33.7784 65.0543 29.5639 60.6826 27.7174C54.6341 25.1627 47.6152 27.8913 45.0053 33.8121C43.1179 29.5353 38.815 26.7652 34.0557 26.7629C27.4645 26.7596 22.1188 31.9873 22.1155 38.4392C22.1155 40.5407 22.549 42.7437 23.3447 44.9805H33.4229L37.767 36.4155C38.0414 35.8755 38.7108 35.6555 39.2626 35.924C39.5493 36.0636 39.761 36.3171 39.8436 36.62L43.849 51.2968L48.7161 40.18C48.9149 39.7898 49.3146 39.5363 49.7596 39.5181C50.2125 39.525 50.6161 39.7994 50.7811 40.2124L53.5598 47.1499L55.5209 45.0345C55.7322 44.8063 56.0324 44.6762 56.347 44.6763H66.7958ZM65.9614 46.8615H56.843L54.0045 49.9234C53.7465 50.2054 53.3565 50.3346 52.9766 50.2639C52.5957 50.1958 52.2781 49.9392 52.1374 49.586L49.6954 43.4876L44.6271 55.0619C44.4519 55.4633 44.0496 55.7241 43.6037 55.7253H43.5233C43.0488 55.6916 42.6483 55.3672 42.5259 54.9172L38.4517 39.9806L35.1147 46.5592C34.9263 46.9307 34.5391 47.1657 34.1154 47.1659H24.2309C27.8982 55.2373 35.9205 63.4606 45.006 68.7142C54.5816 63.2748 62.4757 54.9562 65.9614 46.8615Z" fill="white"/>
<defs>
<filter id="filter0_d_4389:10110" x="5" y="9" width="80" height="81" filterUnits="userSpaceOnUse" color-interpolation-filters="sRGB">
<feFlood flood-opacity="0" result="BackgroundImageFix"/>
<feColorMatrix in="SourceAlpha" type="matrix" values="0 0 0 0 0 0 0 0 0 0 0 0 0 0 0 0 0 0 127 0" result="hardAlpha"/>
<feOffset dy="6"/>
<feGaussianBlur stdDeviation="2.5"/>
<feColorMatrix type="matrix" values="0 0 0 0 0.66 0 0 0 0 0.684444 0 0 0 0 0.733333 0 0 0 0.3 0"/>
<feBlend mode="normal" in2="BackgroundImageFix" result="effect1_dropShadow_4389:10110"/>
<feBlend mode="normal" in="SourceGraphic" in2="effect1_dropShadow_4389:10110" result="shape"/>
</filter>
</defs>
</svg>
