<svg width="18" height="20" viewBox="0 0 18 20" fill="none" xmlns="http://www.w3.org/2000/svg">
<path fill-rule="evenodd" clip-rule="evenodd" d="M10.6325 2.45793C9.74411 1.51402 8.24397 1.51402 7.35559 2.45793L2.36155 7.7641C1.96873 8.18147 1.75 8.73302 1.75 9.30617V15.2981C1.75 16.4862 2.67382 17.4696 3.85965 17.5437L9 17.865L14.1387 17.5438C15.325 17.4697 16.249 16.4855 16.2483 15.2969L16.2447 9.31189C16.2444 8.7392 16.0257 8.18819 15.6332 7.77116L10.6325 2.45793ZM6.26329 1.42988C7.74392 -0.143291 10.2441 -0.143295 11.7248 1.42988L16.7255 6.74311C17.3797 7.43816 17.7442 8.35651 17.7447 9.31099L17.7483 15.296C17.7495 17.2771 16.2095 18.9173 14.2322 19.0409L9 19.3679L3.76608 19.0408C1.7897 18.9173 0.25 17.2783 0.25 15.2981V9.30617C0.25 8.35091 0.614552 7.43167 1.26925 6.73605L6.26329 1.42988Z" fill="#888888"/>
<path fill-rule="evenodd" clip-rule="evenodd" d="M9.13082 11.077C9.05057 11.0277 8.94943 11.0277 8.86918 11.077L8.47674 10.4379L8.86918 11.077L6.86918 12.3051C6.79513 12.3505 6.75 12.4312 6.75 12.5181V15.1166C6.75 15.5308 6.41421 15.8666 6 15.8666C5.58579 15.8666 5.25 15.5308 5.25 15.1166V12.5181C5.25 11.9098 5.5659 11.3451 6.08429 11.0268L8.08429 9.79874C8.64604 9.45381 9.35396 9.45381 9.91571 9.79874L11.9157 11.0268C12.4341 11.3451 12.75 11.9098 12.75 12.5181V15.1166C12.75 15.5308 12.4142 15.8666 12 15.8666C11.5858 15.8666 11.25 15.5308 11.25 15.1166V12.5181C11.25 12.4312 11.2049 12.3505 11.1308 12.3051L9.13082 11.077Z" fill="#888888"/>
</svg>
