<svg width="31" height="30" viewBox="0 0 31 30" fill="none" xmlns="http://www.w3.org/2000/svg">
<path d="M27.0408 0.748047H6.86193C6.60878 0.748047 6.40332 0.95281 6.40332 1.20511V29.5428C6.40332 29.7951 6.60878 29.9999 6.86193 29.9999H27.0408C27.2939 29.9999 27.4994 29.7951 27.4994 29.5428V1.20511C27.4994 0.95281 27.2939 0.748047 27.0408 0.748047Z" fill="#59AA70"/>
<path d="M8.69629 27.7144H20.1616L25.2063 23.1438V3.94727H8.69629V27.7144Z" fill="#FFFEFE"/>
<path d="M11.4492 0.748047V5.31865C11.4492 5.57095 11.6547 5.77571 11.9078 5.77571H21.9973C22.2504 5.77571 22.4559 5.57095 22.4559 5.31865V0.748047H11.4492Z" fill="#FFD15C"/>
<path d="M12.8242 3.0332H13.7414V3.94732H12.8242V3.0332Z" fill="#FFFEFA"/>
<path d="M20.1621 3.0332H21.0793V3.94732H20.1621V3.0332Z" fill="#FFFEFA"/>
<path d="M20.6178 23.1426H25.2039L20.1592 27.7132V23.5996C20.1592 23.3473 20.3646 23.1426 20.6178 23.1426Z" fill="#EBEBEB"/>
<path d="M11.9043 8.51709H22.4523V15.8301H11.9043V8.51709Z" fill="#EBEBEB"/>
<path d="M14.6553 18.1147H19.7V19.0289H14.6553V18.1147Z" fill="#EBEBEB"/>
<path d="M20.6182 18.1147H23.3698V19.0289H20.6182V18.1147Z" fill="#EBEBEB"/>
<path d="M13.2803 20.8569H18.325V21.7711H13.2803V20.8569Z" fill="#EBEBEB"/>
<path d="M19.2422 20.8569H23.3697V21.7711H19.2422V20.8569Z" fill="#EBEBEB"/>
<path d="M10.9873 23.6006H18.7837V24.5147H10.9873V23.6006Z" fill="#EBEBEB"/>
<path d="M14.6572 3.0332H19.2433V3.94732H14.6572V3.0332Z" fill="#FFFEFA"/>
<g clip-path="url(#clip0_4121:10131)">
<path d="M6.69617 9.52295C4.1066 9.52295 2 11.6224 2 14.2032C2 16.7841 4.1066 18.8835 6.69617 18.8835C9.28574 18.8835 11.3923 16.7841 11.3923 14.2032C11.3923 11.6224 9.28574 9.52295 6.69617 9.52295Z" fill="#FFD15C"/>
<path d="M6.69596 10.6934C4.75378 10.6934 3.17383 12.268 3.17383 14.2036C3.17383 16.1392 4.75378 17.7138 6.69596 17.7138C8.63814 17.7138 10.2181 16.1392 10.2181 14.2036C10.2181 12.268 8.63814 10.6934 6.69596 10.6934Z" fill="white"/>
<path d="M8.73413 16.4293C8.65781 16.5054 8.55764 16.5437 8.45746 16.5437C8.35728 16.5437 8.25703 16.5054 8.18079 16.4293L6.22403 14.4792C6.15043 14.4063 6.10938 14.3072 6.10938 14.2035V11.6683C6.10938 11.4526 6.28465 11.2783 6.5007 11.2783C6.71675 11.2783 6.89202 11.4526 6.89202 11.6683V14.042L8.73413 15.8778C8.88712 16.0304 8.88712 16.2768 8.73413 16.4293V16.4293Z" fill="#FFD15C"/>
</g>
<defs>
<clipPath id="clip0_4121:10131">
<rect width="9.39234" height="9.36059" fill="white" transform="translate(2 9.52295)"/>
</clipPath>
</defs>
</svg>
