<svg width="334" height="250" viewBox="0 0 334 250" fill="none" xmlns="http://www.w3.org/2000/svg">
<path d="M334 219.7H0V219.867H334V219.7Z" fill="#EBEBEB"/>
<path d="M300.533 230.496H278.409V230.663H300.533V230.496Z" fill="#EBEBEB"/>
<path d="M182.511 228.396H173.9V228.563H182.511V228.396Z" fill="#EBEBEB"/>
<path d="M233.58 229.107H215.45V229.274H233.58V229.107Z" fill="#EBEBEB"/>
<path d="M277.741 224.269H240.26V224.436H277.741V224.269Z" fill="#EBEBEB"/>
<path d="M52.765 232.032H35.043V232.199H52.765V232.032Z" fill="#EBEBEB"/>
<path d="M74.0749 232.032H58.7109V232.199H74.0749V232.032Z" fill="#EBEBEB"/>
<path d="M128.129 228.315H87.5078V228.482H128.129V228.315Z" fill="#EBEBEB"/>
<path d="M158.323 189.776H29.3387C27.2345 189.776 25.5244 188.058 25.5244 185.945V3.83108C25.5244 1.71761 27.2345 0 29.3387 0H158.329C160.434 0 162.144 1.71761 162.144 3.83108V185.945C162.137 188.058 160.427 189.776 158.323 189.776ZM29.3387 0.167736C27.328 0.167736 25.6914 1.81154 25.6914 3.83108V185.945C25.6914 187.964 27.328 189.608 29.3387 189.608H158.329C160.34 189.608 161.977 187.964 161.977 185.945V3.83108C161.977 1.81154 160.34 0.167736 158.329 0.167736H29.3387Z" fill="#EBEBEB"/>
<path d="M302.811 189.776H173.82C171.716 189.776 170.006 188.058 170.006 185.945V3.83108C170.006 1.71761 171.716 0 173.82 0H302.811C304.915 0 306.625 1.71761 306.625 3.83108V185.945C306.625 188.058 304.915 189.776 302.811 189.776ZM173.82 0.167736C171.809 0.167736 170.173 1.81154 170.173 3.83108V185.945C170.173 187.964 171.809 189.608 173.82 189.608H302.811C304.822 189.608 306.458 187.964 306.458 185.945V3.83108C306.458 1.81154 304.822 0.167736 302.811 0.167736H173.82Z" fill="#EBEBEB"/>
<path d="M176.953 161.992C175.617 158.134 165.063 163.381 160.781 169.775C157.929 174.036 156.185 178.578 155.377 184.683C155.477 177.719 155.584 170.231 155.691 163.173C156.559 161.415 158.536 157.349 159.953 154.135C164.695 143.4 175.978 139.402 179.879 132.625C184.989 123.742 184.956 110.424 180.607 105.613C176.826 101.433 164.315 129.686 162.905 132.84C158.055 143.696 156.646 151.747 155.738 159.557C155.838 152.921 155.938 146.829 156.018 142.132C156.285 126.801 156.613 121.877 156.766 120.354C157.287 119.616 157.909 118.75 158.263 118.287C161.289 114.369 168.009 109.712 171.362 104.023C176.265 95.7099 175.47 85.7665 172.037 82.0629C168.443 78.1915 162.084 87.3432 158.71 96.4076C155.337 105.479 156.78 114.154 155.831 121.689C155.631 123.165 155.43 128.774 155.237 136.557C154.214 128.183 152.177 122.574 148.396 117.348C143.747 110.92 139.739 103.09 135.905 104.103C132.077 105.116 134.134 115.476 137.167 122.749C139.866 129.223 153.172 135.685 155.136 140.891C154.903 151.438 154.702 164.803 154.555 177.243C153.506 170.815 154.228 170.278 149.926 160.436C147.367 154.585 136.887 147.372 135.637 151.391C134.408 155.336 136.285 163.005 140.247 168.326C143.44 172.62 150.52 172.613 152.157 175.277C152.538 175.901 153.8 178.283 154.528 179.651C154.355 194.842 154.281 208.254 154.368 212.823L155.056 212.87C155.023 211.689 155.103 203.96 155.243 193.734C156.96 188.293 168.536 185.12 172.117 179.457C175.871 173.532 178.563 166.622 176.953 161.992Z" fill="#E6E6E6"/>
<path d="M166.072 219.7H143.854C142.638 219.7 141.596 218.841 141.356 217.647L139.779 209.837H170.153L168.577 217.647C168.33 218.841 167.288 219.7 166.072 219.7Z" fill="#F0F0F0"/>
<path d="M170.787 212.863H139.138C138.376 212.863 137.741 212.293 137.655 211.534L137.007 205.758C136.906 204.872 137.601 204.094 138.49 204.094H171.429C172.317 204.094 173.012 204.872 172.912 205.758L172.264 211.534C172.184 212.293 171.542 212.863 170.787 212.863Z" fill="#F0F0F0"/>
<path d="M267.712 216.904H288.987V125.717H267.712V216.904Z" fill="#F0F0F0"/>
<path d="M177.321 219.7H287.555V216.902H177.321V219.7Z" fill="#F0F0F0"/>
<path d="M267.707 125.714H175.891V216.902H267.707V125.714Z" fill="#F5F5F5"/>
<path d="M259.344 161.657H184.254V180.966H259.344V161.657Z" fill="#F0F0F0"/>
<path d="M259.344 186.508H184.254V205.818H259.344V186.508Z" fill="#F0F0F0"/>
<path d="M213.372 164.984H230.233C231.375 164.984 232.31 164.045 232.31 162.898C232.31 161.75 231.375 160.811 230.233 160.811H213.372C212.23 160.811 211.295 161.75 211.295 162.898C211.295 164.052 212.23 164.984 213.372 164.984Z" fill="#F5F5F5"/>
<path d="M259.344 136.805H184.254V156.115H259.344V136.805Z" fill="#F0F0F0"/>
<path d="M213.372 140.133H230.233C231.375 140.133 232.31 139.193 232.31 138.046C232.31 136.899 231.375 135.959 230.233 135.959H213.372C212.23 135.959 211.295 136.899 211.295 138.046C211.295 139.193 212.23 140.133 213.372 140.133Z" fill="#F5F5F5"/>
<path d="M213.372 189.836H230.233C231.375 189.836 232.31 188.897 232.31 187.749C232.31 186.602 231.375 185.663 230.233 185.663H213.372C212.23 185.663 211.295 186.602 211.295 187.749C211.295 188.903 212.23 189.836 213.372 189.836Z" fill="#F5F5F5"/>
<path d="M174.003 125.712L267.71 125.712V123.109L174.003 123.109V125.712Z" fill="#F0F0F0"/>
<path d="M291.007 123.118H267.707V125.721H291.007V123.118Z" fill="#E6E6E6"/>
<path d="M98.4722 219.7H119.494L119.494 83.1434H98.4722L98.4722 219.7Z" fill="#E0E0E0"/>
<path d="M44.8965 219.7H115.284L122.678 51.6226H52.2912L44.8965 219.7Z" fill="#E6E6E6"/>
<path d="M34.6289 219.7H112.491L119.879 51.6226H42.0237L34.6289 219.7Z" fill="#F0F0F0"/>
<path d="M104.869 211.461L111.095 59.8617H49.6455L43.4131 211.461H104.869Z" fill="white"/>
<path d="M78.4632 211.461L99.3516 59.8617H92.7985L71.9102 211.461H78.4632Z" fill="#FAFAFA"/>
<path d="M69.1307 211.461L90.0191 59.8617H78.8434L57.9551 211.461H69.1307Z" fill="#FAFAFA"/>
<path d="M196.038 97.3994L281.228 97.3994V17.356L196.038 17.356V97.3994Z" fill="#E6E6E6"/>
<path d="M193.388 97.3994L279.987 97.3994V17.356L193.388 17.356V97.3994Z" fill="#F5F5F5"/>
<path d="M196.038 100.673L281.228 100.673V97.3989L196.038 97.3989V100.673Z" fill="#E6E6E6"/>
<path d="M191.019 100.673L271.834 100.673V97.3989L191.019 97.3989V100.673Z" fill="#F5F5F5"/>
<path d="M276.288 92.4379V22.3177L197.09 22.3177V92.4379L276.288 92.4379Z" fill="#FAFAFA"/>
<path d="M197.622 92.4409V22.3207H197.094V92.4409H197.622Z" fill="#E6E6E6"/>
<path d="M263.152 92.4359L249.458 22.3158H231.509L245.203 92.4359H263.152Z" fill="white"/>
<path d="M242.297 92.4359L228.603 22.3158H220.5L234.194 92.4359H242.297Z" fill="white"/>
<path d="M273.639 88.6316V14.6065C273.639 14.3784 273.459 14.1973 273.232 14.1973H273.198C272.971 14.1973 272.791 14.3784 272.791 14.6065V88.6383C272.791 88.8664 272.971 89.0476 273.198 89.0476H273.232C273.459 89.0408 273.639 88.8597 273.639 88.6316Z" fill="#EBEBEB"/>
<path opacity="0.5" d="M191.447 26.4424L282.662 26.4424V14.191L191.447 14.191V26.4424Z" fill="#E6E6E6"/>
<path d="M191.447 15.7142L282.662 15.7142V14.1911L191.447 14.1911V15.7142Z" fill="#E0E0E0"/>
<path d="M191.596 14.8613H282.511C282.831 14.8613 283.092 14.5996 283.092 14.2776V14.1098C283.092 13.7878 282.831 13.5261 282.511 13.5261H191.596C191.275 13.5261 191.015 13.7878 191.015 14.1098V14.2776C191.015 14.5996 191.282 14.8613 191.596 14.8613Z" fill="#EBEBEB"/>
<path d="M191.335 26.7642H282.778C282.951 26.7642 283.098 26.6233 283.098 26.4422C283.098 26.2677 282.958 26.1201 282.778 26.1201H191.335C191.162 26.1201 191.015 26.261 191.015 26.4422C191.015 26.6233 191.162 26.7642 191.335 26.7642Z" fill="white"/>
<path d="M167 250C238.531 250 296.519 246.6 296.519 242.405C296.519 238.21 238.531 234.81 167 234.81C95.4689 234.81 37.4814 238.21 37.4814 242.405C37.4814 246.6 95.4689 250 167 250Z" fill="#F5F5F5"/>
<path d="M43.3213 145.677L42.6445 145.757L43.8477 156.086L44.5244 156.006L43.3213 145.677Z" fill="#019748"/>
<path d="M44.9746 159.843L44.2979 159.922L44.9048 165.133L45.5816 165.054L44.9746 159.843Z" fill="#019748"/>
<path d="M89.9056 124.62L89.104 122.366C87.9684 119.166 84.782 117.18 81.422 117.576L49.4983 121.326C45.517 121.796 42.6646 125.419 43.1322 129.418L52.217 207.448C52.5377 210.192 55.0093 212.152 57.7414 211.836L171.963 198.417C174.695 198.095 176.645 195.613 176.331 192.869L168.469 125.405C168.148 122.661 165.677 120.702 162.945 121.017L96.619 128.807C93.6865 129.156 90.8942 127.418 89.9056 124.62Z" fill="#019748"/>
<path d="M93.0977 90.6774L57.0078 97.9035L66.9199 147.845L103.01 140.619L93.0977 90.6774Z" fill="#019748"/>
<path opacity="0.7" d="M93.0977 90.6774L57.0078 97.9035L66.9199 147.845L103.01 140.619L93.0977 90.6774Z" fill="white"/>
<g opacity="0.4">
<path opacity="0.4" d="M88.2754 102.701L66.0443 107.15C64.9688 107.364 63.9201 106.66 63.7063 105.58C63.4926 104.5 64.194 103.446 65.2694 103.231L87.5005 98.7831C88.576 98.5684 89.6247 99.2729 89.8385 100.353C90.0522 101.433 89.3508 102.487 88.2754 102.701Z" fill="#019748"/>
<path opacity="0.4" d="M89.9121 110.961L67.681 115.409C66.6056 115.624 65.5568 114.919 65.343 113.839C65.1293 112.759 65.8307 111.705 66.9062 111.491L89.1372 107.042C90.2127 106.828 91.2614 107.532 91.4752 108.612C91.689 109.693 90.9942 110.746 89.9121 110.961Z" fill="#019748"/>
<path opacity="0.4" d="M91.5488 119.22L69.3178 123.668C68.2423 123.883 67.1935 123.179 66.9798 122.098C66.766 121.018 67.4674 119.965 68.5429 119.75L90.7739 115.302C91.8494 115.087 92.8982 115.791 93.1119 116.872C93.3324 117.952 92.631 119.005 91.5488 119.22Z" fill="#019748"/>
<path opacity="0.4" d="M93.1914 127.479L70.9603 131.928C69.8849 132.142 68.8361 131.438 68.6223 130.358C68.4086 129.277 69.11 128.224 70.1855 128.009L92.4165 123.561C93.492 123.346 94.5407 124.051 94.7545 125.131C94.9683 126.205 94.2669 127.258 93.1914 127.479Z" fill="#019748"/>
<path opacity="0.4" d="M88.7493 136.953L72.5971 140.187C71.5216 140.402 70.4728 139.697 70.2591 138.617C70.0453 137.537 70.7467 136.483 71.8222 136.269L87.9744 133.035C89.0499 132.82 90.0987 133.525 90.3124 134.605C90.5329 135.678 89.8315 136.732 88.7493 136.953Z" fill="#019748"/>
</g>
<path d="M144.527 81.0571L108.065 86.0692L114.941 136.525L151.402 131.513L144.527 81.0571Z" fill="#019748"/>
<path opacity="0.7" d="M144.527 81.0571L108.065 86.0692L114.941 136.525L151.402 131.513L144.527 81.0571Z" fill="white"/>
<g opacity="0.4">
<path opacity="0.4" d="M138.983 92.7575L116.525 95.8438C115.436 95.9914 114.434 95.2266 114.281 94.1329C114.134 93.0393 114.895 92.0329 115.984 91.8786L138.442 88.7922C139.531 88.6446 140.533 89.4095 140.687 90.5031C140.834 91.5968 140.072 92.6032 138.983 92.7575Z" fill="#019748"/>
<path opacity="0.4" d="M140.119 101.097L117.661 104.184C116.572 104.331 115.57 103.566 115.417 102.473C115.27 101.379 116.031 100.373 117.12 100.218L139.578 97.1321C140.667 96.9845 141.669 97.7494 141.823 98.843C141.97 99.9434 141.208 100.95 140.119 101.097Z" fill="#019748"/>
<path opacity="0.4" d="M124.982 111.678L118.797 112.53C117.708 112.678 116.706 111.913 116.552 110.819C116.405 109.726 117.167 108.719 118.256 108.565L124.441 107.713C125.53 107.565 126.532 108.33 126.686 109.424C126.833 110.517 126.071 111.53 124.982 111.678Z" fill="#019748"/>
<path opacity="0.4" d="M136.986 110.028L130.801 110.88C129.712 111.027 128.71 110.262 128.556 109.169C128.409 108.075 129.171 107.069 130.26 106.914L136.445 106.062C137.534 105.915 138.536 106.68 138.69 107.773C138.837 108.867 138.075 109.88 136.986 110.028Z" fill="#019748"/>
<path opacity="0.4" d="M142.391 117.784L119.933 120.87C118.844 121.018 117.842 120.253 117.688 119.159C117.541 118.066 118.303 117.059 119.391 116.905L141.85 113.819C142.938 113.671 143.94 114.436 144.094 115.529C144.241 116.623 143.48 117.636 142.391 117.784Z" fill="#019748"/>
<path opacity="0.4" d="M137.393 126.969L121.074 129.21C119.985 129.357 118.983 128.592 118.83 127.499C118.683 126.405 119.444 125.399 120.533 125.244L136.852 123.003C137.941 122.856 138.943 123.621 139.097 124.714C139.244 125.808 138.482 126.821 137.393 126.969Z" fill="#019748"/>
</g>
<path d="M110.109 88.4244L73.4482 91.6328L77.8491 142.364L114.509 139.155L110.109 88.4244Z" fill="#019748"/>
<path opacity="0.8" d="M110.109 88.4244L73.4482 91.6328L77.8491 142.364L114.509 139.155L110.109 88.4244Z" fill="white"/>
<g opacity="0.4">
<path opacity="0.4" d="M104.015 99.8427L81.4297 101.822C80.3341 101.916 79.3722 101.104 79.272 100.004C79.1785 98.9034 79.9868 97.9373 81.0823 97.8366L103.667 95.8574C104.763 95.7634 105.725 96.5753 105.825 97.6756C105.919 98.7759 105.11 99.7421 104.015 99.8427Z" fill="#019748"/>
<path opacity="0.4" d="M104.743 108.23L82.1582 110.209C81.0626 110.303 80.1007 109.491 80.0005 108.391C79.907 107.29 80.7153 106.324 81.8108 106.223L104.396 104.244C105.491 104.15 106.453 104.962 106.554 106.062C106.647 107.163 105.839 108.136 104.743 108.23Z" fill="#019748"/>
<path opacity="0.4" d="M105.471 116.616L82.8857 118.596C81.7902 118.69 80.8283 117.878 80.7281 116.777C80.6345 115.677 81.4428 114.711 82.5383 114.61L105.123 112.631C106.219 112.537 107.181 113.349 107.281 114.449C107.375 115.55 106.566 116.522 105.471 116.616Z" fill="#019748"/>
<path opacity="0.4" d="M106.199 125.003L83.6142 126.982C82.5187 127.076 81.5568 126.264 81.4566 125.164C81.3631 124.063 82.1713 123.097 83.2669 122.997L105.852 121.017C106.947 120.923 107.909 121.735 108.01 122.836C108.103 123.943 107.295 124.909 106.199 125.003Z" fill="#019748"/>
<path opacity="0.4" d="M100.755 133.933L84.3418 135.369C83.2462 135.463 82.2843 134.651 82.1841 133.551C82.0906 132.45 82.8989 131.484 83.9944 131.383L100.407 129.948C101.503 129.854 102.465 130.666 102.565 131.766C102.658 132.866 101.85 133.839 100.755 133.933Z" fill="#019748"/>
</g>
<path d="M154.786 85.9502L118.03 87.7318L120.474 138.595L157.23 136.814L154.786 85.9502Z" fill="#019748"/>
<path opacity="0.8" d="M154.786 85.9502L118.03 87.7318L120.474 138.595L157.23 136.814L154.786 85.9502Z" fill="white"/>
<g opacity="0.4">
<path opacity="0.4" d="M148.256 97.1185L125.611 98.2189C124.515 98.2725 123.58 97.4204 123.527 96.3201C123.473 95.2198 124.322 94.2804 125.417 94.2268L148.062 93.1264C149.158 93.0728 150.093 93.9248 150.147 95.0252C150.207 96.1322 149.358 97.0648 148.256 97.1185Z" fill="#019748"/>
<path opacity="0.4" d="M148.663 105.532L126.018 106.632C124.923 106.686 123.987 105.834 123.934 104.734C123.881 103.633 124.729 102.694 125.824 102.64L148.47 101.54C149.565 101.486 150.5 102.338 150.554 103.439C150.607 104.539 149.759 105.478 148.663 105.532Z" fill="#019748"/>
<path opacity="0.4" d="M132.666 114.737L126.426 115.039C125.331 115.093 124.396 114.241 124.342 113.141C124.289 112.04 125.137 111.101 126.233 111.047L132.472 110.745C133.567 110.692 134.503 111.544 134.556 112.644C134.609 113.744 133.761 114.684 132.666 114.737Z" fill="#019748"/>
<path opacity="0.4" d="M144.762 114.147L138.523 114.449C137.428 114.503 136.492 113.651 136.439 112.551C136.385 111.45 137.234 110.511 138.329 110.457L144.568 110.155C145.664 110.102 146.599 110.954 146.653 112.054C146.706 113.161 145.858 114.094 144.762 114.147Z" fill="#019748"/>
<path opacity="0.4" d="M149.472 122.353L126.827 123.453C125.731 123.507 124.796 122.655 124.743 121.554C124.689 120.454 125.538 119.515 126.633 119.461L149.278 118.361C150.374 118.307 151.309 119.159 151.362 120.26C151.416 121.36 150.567 122.299 149.472 122.353Z" fill="#019748"/>
<path opacity="0.4" d="M143.687 131.061L127.234 131.86C126.138 131.914 125.203 131.061 125.15 129.961C125.096 128.861 125.945 127.921 127.04 127.868L143.493 127.069C144.589 127.016 145.524 127.868 145.577 128.968C145.631 130.068 144.782 131.008 143.687 131.061Z" fill="#019748"/>
</g>
<path d="M100.099 126.063L99.5114 123.856C98.6831 120.723 95.7105 118.79 92.3571 119.179L60.4334 122.93C56.4521 123.4 53.2991 126.949 53.3927 130.867L55.2029 207.247C55.2697 209.931 57.5343 211.85 60.2664 211.528L174.488 198.109C177.22 197.787 179.384 195.351 179.317 192.668L177.754 126.64C177.687 123.956 175.423 122.038 172.691 122.36L106.365 130.149C103.419 130.498 100.827 128.801 100.099 126.063Z" fill="#01C25C"/>
<path opacity="0.3" d="M100.099 126.063L99.5114 123.856C98.6831 120.723 95.7105 118.79 92.3571 119.179L60.4334 122.93C56.4521 123.4 53.2991 126.949 53.3927 130.867L55.2029 207.247C55.2697 209.931 57.5343 211.85 60.2664 211.528L174.488 198.109C177.22 197.787 179.384 195.351 179.317 192.668L177.754 126.64C177.687 123.956 175.423 122.038 172.691 122.36L106.365 130.149C103.419 130.498 100.827 128.801 100.099 126.063Z" fill="black"/>
<path d="M211.777 89.3429C211.282 91.8388 210.755 94.2877 210.16 96.7367C209.579 99.1856 208.984 101.635 208.336 104.07L207.348 107.72L207.221 108.183C207.161 108.384 207.094 108.586 207.021 108.794C206.867 109.209 206.666 109.646 206.366 110.088C206.072 110.531 205.664 110.994 205.117 111.363C204.576 111.732 203.901 111.967 203.293 112.027C202.051 112.128 201.155 111.752 200.427 111.39C199.699 111.008 199.111 110.565 198.57 110.102C197.495 109.156 196.646 108.163 195.852 107.022L197.709 105.345C198.617 106.036 199.619 106.74 200.581 107.257C201.055 107.519 201.536 107.74 201.957 107.854C202.365 107.988 202.725 107.968 202.732 107.901C202.739 107.874 202.665 107.874 202.632 107.881C202.592 107.881 202.598 107.861 202.632 107.767C202.658 107.68 202.712 107.532 202.752 107.358L202.906 106.62L203.687 102.956L205.257 95.6296C205.765 93.1874 206.312 90.7385 206.84 88.3231L211.777 89.3429Z" fill="#FFC3BD"/>
<path d="M209.539 81.6743C203.841 86.0556 204.068 94.3149 204.068 94.3149L214.261 96.7638C214.261 96.7638 217.388 88.4642 216.118 85.4249C214.802 82.2513 212.752 79.2119 209.539 81.6743Z" fill="#263238"/>
<path d="M198.235 105.472L194.488 101.708L192.464 107.599C192.464 107.599 195.63 109.317 198.656 107.7L198.235 105.472Z" fill="#FFC3BD"/>
<path d="M189.297 101.125L188.609 105.781L192.464 107.599L194.488 101.709L189.297 101.125Z" fill="#FFC3BD"/>
<path d="M242.564 237.453L236.832 238.017L230.867 224.31L236.599 223.746L242.564 237.453Z" fill="#FFC3BD"/>
<path d="M279.491 217.191L275.183 221.25L265.891 210.992L270.199 206.932L279.491 217.191Z" fill="#FFC3BD"/>
<path d="M273.199 219.305L276.432 213.447C276.552 213.233 276.793 213.145 277.013 213.226L281.997 215.131C282.511 215.326 282.738 215.997 282.458 216.48C281.295 218.499 280.634 219.419 279.211 221.995C278.336 223.578 276.633 227.215 275.424 229.402C274.241 231.543 271.997 230.503 272.304 229.483C273.687 224.914 273.426 222.364 273.039 220.351C272.965 219.989 273.025 219.62 273.199 219.305Z" fill="#263238"/>
<path d="M236.072 236.239H243.112C243.366 236.239 243.6 236.42 243.667 236.669L245.196 242.264C245.357 242.841 244.929 243.378 244.335 243.385C241.856 243.405 240.681 243.398 237.581 243.398C235.677 243.398 230.748 243.398 228.122 243.398C225.551 243.398 225.009 240.788 226.078 240.547C230.848 239.487 233.6 238.024 235.076 236.628C235.343 236.373 235.697 236.239 236.072 236.239Z" fill="#263238"/>
<path opacity="0.2" d="M230.874 224.316L233.947 231.381H239.925L236.605 223.753L230.874 224.316Z" fill="black"/>
<path opacity="0.2" d="M270.199 206.932L265.891 210.998L270.687 216.285L274.995 212.22L270.199 206.932Z" fill="black"/>
<path d="M211.261 80.8287C211.261 80.8287 208.683 81.9693 217.327 116.322C226.853 115.496 236.699 114.638 241.335 114.235C240.086 104.453 239.551 98.4007 242.49 77.8565C242.49 77.8565 237.367 77.1922 232.176 77.3935C228.122 77.5478 224.795 77.7089 221.275 78.3395C216.632 79.1715 211.261 80.8287 211.261 80.8287Z" fill="#263238"/>
<path d="M232.184 77.2192C232.184 77.2192 233.546 77.2461 235.156 77.2461C236.125 78.7423 232.978 85.2974 227.781 89.5847C226.532 85.6731 223.606 83.506 223.606 83.506L232.184 77.2192Z" fill="white"/>
<path d="M221.282 78.2457C221.282 78.2457 220.674 78.3329 219.224 78.6684C218.256 80.1646 216.619 86.5586 219.472 89.8194C220.58 85.7938 223.607 83.5059 223.607 83.5059L221.282 78.2457Z" fill="white"/>
<path d="M230.039 65.1487C229.652 68.7315 229.525 75.2464 232.183 77.3867C232.183 77.3867 229.344 80.2986 223.606 83.5057C219.431 80.6072 221.282 78.3327 221.282 78.3327C225.116 77.0579 224.762 74.146 223.847 71.469L230.039 65.1487Z" fill="#FFC3BD"/>
<path d="M223.507 83.5259C223.507 83.5259 227.027 79.6747 228.844 80.4127C230.661 81.1507 229.258 82.4725 229.098 83.707C228.938 84.9483 229.806 88.2493 227.368 87.3905C224.93 86.5384 223.507 83.5259 223.507 83.5259Z" fill="#019748"/>
<path d="M223.366 83.4454C223.366 83.4454 221.703 80.4932 219.906 80.8824C218.109 81.2783 219.178 82.3115 219.338 83.4253C219.545 84.8544 218.042 87.5851 220.213 86.8135C222.324 86.0688 223.366 83.4454 223.366 83.4454Z" fill="#019748"/>
<g opacity="0.2">
<path opacity="0.2" d="M222.451 82.8084C222.471 83.6336 222.585 84.2039 222.785 84.5461C223.166 83.9355 223.36 83.4525 223.36 83.4525C223.36 83.4525 223.039 82.8755 222.511 82.2649C222.465 82.3991 222.451 82.5735 222.451 82.8084Z" fill="black"/>
<path opacity="0.2" d="M224.79 82.2783C224.035 82.9425 223.514 83.5195 223.514 83.5195C223.514 83.5195 223.754 84.0227 224.202 84.6802C224.502 84.4253 224.743 83.9623 224.85 83.1572C224.91 82.7412 224.876 82.4728 224.79 82.2783Z" fill="black"/>
</g>
<path d="M223.467 84.7334C222.972 84.7334 222.665 84.19 222.625 82.8883C222.591 81.5934 223.58 82.3113 223.58 82.3113C223.58 82.3113 224.903 81.6203 224.676 83.197C224.502 84.4248 223.981 84.7334 223.467 84.7334Z" fill="#019748"/>
<path opacity="0.2" d="M227.514 67.7318L223.847 71.469C224.067 72.0997 224.247 72.7505 224.348 73.3812C225.824 73.0323 227.962 71.4958 227.982 69.9057C227.995 69.1207 227.674 68.0807 227.514 67.7318Z" fill="black"/>
<path d="M224.368 53.0452C224.368 53.0452 220.374 58.6207 219.712 61.1233C216.987 62.7134 216.433 54.8634 217.882 50.0125C222.364 52.8238 224.368 53.0452 224.368 53.0452Z" fill="#263238"/>
<path d="M233.179 59.5532C231.69 65.2763 231.182 67.732 227.688 70.1272C222.431 73.7369 215.758 70.6506 215.511 64.5919C215.29 59.1439 217.762 50.6967 223.861 49.5092C229.866 48.335 234.669 53.83 233.179 59.5532Z" fill="#FFC3BD"/>
<path d="M236.278 57.2654C236.278 57.2654 233.413 61.9217 233.032 63.9479C230.954 65.3703 230.079 59.1574 230.954 55.219C231.903 51.7569 236.278 57.2654 236.278 57.2654Z" fill="#263238"/>
<path d="M235.136 54.0244C234.307 54.6551 233.432 52.3269 234.261 50.5422C232.677 50.6428 230.774 49.6968 231.174 48.1604C228.055 49.207 226.899 46.0201 227.26 43.8194C227.694 41.1557 230.019 40.5653 231.388 41.2698C231.415 40.0688 234.408 37.5662 235.556 39.5253C237.687 38.7672 241.121 39.002 241.054 41.6321C242.464 41.6791 246.619 43.2759 245.089 47.0332C246.926 47.1405 247.914 49.4888 246.899 51.2534C249.25 52.6355 248.382 55.0442 247.487 55.8829C248.335 57.6542 245.757 60.2843 244.394 59.9689C243.352 61.5792 241.756 62.7802 240.707 61.4115C238.676 62.8942 236.405 61.0156 236.919 59.5597C234.608 59.1839 232.29 55.3797 235.136 54.0244Z" fill="#263238"/>
<path d="M238.529 48.3889C240.025 50.8982 239.898 53.7363 238.248 54.7293C236.598 55.7223 234.047 54.4945 232.55 51.9851C231.054 49.4758 231.181 46.6377 232.831 45.6447C234.481 44.6517 237.033 45.8796 238.529 48.3889Z" fill="#019748"/>
<path d="M224.635 52.3471C224.542 53.065 222.571 52.8838 222.004 51.6158C221.189 52.4746 219.271 52.9174 218.617 51.9848C217.508 54.0781 215.29 53.5279 214.709 52.5215C214.128 51.5151 213.754 49.6633 214.903 49.301C214.235 48.7173 214.435 46.0067 216.185 46.3421C216.92 44.8929 218.937 43.2491 220.4 44.5306C221.195 43.8328 224.395 42.4641 225.704 45.0271C226.773 44.1415 228.657 44.7453 229.111 46.1006C231.195 45.5572 232.09 47.1406 232.084 47.9927C233.56 48.3952 233.66 50.9582 232.732 51.5084C233.079 52.8033 232.899 54.1922 231.536 54.0781C231.275 55.8159 228.951 56.091 228.403 55.1382C226.933 56.1312 223.854 54.4404 224.635 52.3471Z" fill="#263238"/>
<path d="M221.121 47.4159C222.811 45.0676 228.977 44.088 234.314 47.6105C239.124 50.784 238.81 58.151 234.989 57.7618C231.168 57.3727 227.38 52.864 227.38 52.864L221.121 47.4159Z" fill="#263238"/>
<path d="M233.647 64.7196C233.086 65.8065 232.077 66.5379 231.115 66.8264C229.672 67.2625 228.917 65.9743 229.291 64.5854C229.632 63.3375 230.788 61.6064 232.251 61.7809C233.7 61.9486 234.288 63.4717 233.647 64.7196Z" fill="#FFC3BD"/>
<path d="M217.327 116.315C217.327 116.315 209.204 152.411 214.628 177.854C218.262 194.895 231.362 229.328 231.362 229.328L241.602 229.067C241.602 229.067 231.689 192.936 229.638 178.726C226.131 154.418 234.916 114.792 234.916 114.792L217.327 116.315Z" fill="#019748"/>
<path opacity="0.2" d="M226.693 123.608L231.816 131.72C230.514 140.133 229.218 150.654 228.884 160.778C221.683 147.822 225.096 130.458 226.693 123.608Z" fill="black"/>
<path d="M229.912 229.865L242.564 229.543L241.836 225.638L228.924 226.249L229.912 229.865Z" fill="#263238"/>
<path d="M222.578 115.933C222.578 115.933 227.341 154.21 237.675 175.11C246.018 191.991 268.283 216.017 268.283 216.017L273.974 210.126C273.974 210.126 258.937 184.013 252.732 172.802C237.528 145.306 249.953 124.326 241.336 114.235L222.578 115.933Z" fill="#019748"/>
<path d="M267.708 216.809L275.056 209.616L272.618 206.282L264.829 214.092L267.708 216.809Z" fill="#263238"/>
<path d="M241.576 112.786L242.845 114.852C242.945 115.013 242.758 115.201 242.484 115.221L217.301 117.409C217.087 117.429 216.893 117.335 216.873 117.201L216.472 115.06C216.446 114.913 216.619 114.772 216.86 114.752L241.175 112.638C241.349 112.625 241.516 112.679 241.576 112.786Z" fill="#019748"/>
<path opacity="0.5" d="M241.576 112.786L242.845 114.852C242.945 115.013 242.758 115.201 242.484 115.221L217.301 117.409C217.087 117.429 216.893 117.335 216.873 117.201L216.472 115.06C216.446 114.913 216.619 114.772 216.86 114.752L241.175 112.638C241.349 112.625 241.516 112.679 241.576 112.786Z" fill="white"/>
<path d="M238.543 115.798L239.191 115.744C239.318 115.731 239.411 115.657 239.398 115.577L238.85 112.799C238.837 112.718 238.716 112.658 238.583 112.671L237.935 112.725C237.808 112.739 237.714 112.812 237.728 112.893L238.276 115.671C238.296 115.751 238.416 115.811 238.543 115.798Z" fill="#019748"/>
<path d="M219.151 117.482L219.799 117.428C219.926 117.415 220.02 117.341 220.006 117.261L219.458 114.483C219.445 114.403 219.325 114.342 219.191 114.356L218.543 114.409C218.416 114.423 218.323 114.496 218.336 114.577L218.884 117.355C218.904 117.435 219.024 117.496 219.151 117.482Z" fill="#019748"/>
<path d="M228.85 116.644L229.498 116.59C229.625 116.576 229.719 116.503 229.705 116.422L229.158 113.644C229.144 113.564 229.024 113.504 228.89 113.517L228.243 113.571C228.116 113.584 228.022 113.658 228.035 113.738L228.583 116.516C228.603 116.597 228.717 116.65 228.85 116.644Z" fill="#019748"/>
<path d="M223.533 59.3583C223.439 59.828 223.118 60.1635 222.811 60.1031C222.504 60.0427 222.33 59.6133 222.424 59.1369C222.517 58.6672 222.838 58.3318 223.145 58.3922C223.452 58.4525 223.626 58.882 223.533 59.3583Z" fill="#263238"/>
<path d="M218.222 58.3109C218.315 57.8382 218.14 57.4058 217.833 57.3451C217.525 57.2843 217.2 57.6182 217.108 58.0909C217.015 58.5635 217.19 58.996 217.498 59.0567C217.805 59.1175 218.13 58.7836 218.222 58.3109Z" fill="#263238"/>
<path d="M217.968 57.3993L216.906 56.8491C216.9 56.8491 217.307 57.8488 217.968 57.3993Z" fill="#263238"/>
<path d="M220.046 59.4862C220.046 59.4862 218.85 61.3581 217.781 62.1633C218.289 62.8677 219.391 62.8074 219.391 62.8074L220.046 59.4862Z" fill="#ED847E"/>
<path d="M221.569 65.0552C223.232 65.0552 224.201 64.0823 224.248 64.0354C224.294 63.9884 224.294 63.9146 224.248 63.8676C224.201 63.8207 224.127 63.8207 224.081 63.8676C224.067 63.881 222.805 65.1424 220.741 64.7331C220.674 64.7197 220.614 64.76 220.6 64.8271C220.587 64.8942 220.627 64.9546 220.694 64.968C221.001 65.0351 221.295 65.0552 221.569 65.0552Z" fill="#263238"/>
<path d="M226.719 57.5272C226.76 57.5272 226.8 57.5138 226.84 57.4936C226.953 57.4265 226.987 57.2856 226.92 57.1716C226.132 55.8565 224.856 55.7961 224.802 55.7961C224.669 55.8029 224.569 55.8901 224.562 56.0243C224.555 56.1517 224.655 56.2591 224.789 56.2658C224.836 56.2658 225.864 56.3262 226.526 57.4131C226.566 57.4869 226.639 57.5272 226.719 57.5272Z" fill="#263238"/>
<path d="M216.752 55.6346C216.792 55.6346 216.832 55.6279 216.866 55.6078C217.981 54.9838 218.93 55.4669 218.937 55.4736C219.05 55.534 219.191 55.487 219.251 55.3729C219.311 55.2589 219.264 55.118 219.15 55.0576C219.104 55.0308 217.968 54.4537 216.632 55.1985C216.519 55.2589 216.478 55.4065 216.539 55.5205C216.585 55.5943 216.665 55.6346 216.752 55.6346Z" fill="#263238"/>
<path d="M243.513 83.3378C243.967 83.7807 244.281 84.1228 244.635 84.5254C244.976 84.9145 245.303 85.3104 245.624 85.7063C246.265 86.5047 246.866 87.3232 247.434 88.1619C248.556 89.8527 249.565 91.624 250.42 93.469C251.288 95.3074 251.963 97.2465 252.504 99.219C252.758 100.212 252.992 101.205 253.166 102.218C253.399 103.278 253.486 105.003 252.711 106.458C252.337 107.19 251.789 107.794 251.215 108.243C250.64 108.693 250.046 109.008 249.471 109.25C248.316 109.719 247.214 109.921 246.152 110.041C244.027 110.263 242.023 110.182 240.053 109.961C236.118 109.511 232.364 108.679 228.63 107.525L229.238 105.09C231.055 105.392 232.925 105.673 234.775 105.868C236.626 106.083 238.476 106.237 240.3 106.277C242.117 106.304 243.934 106.277 245.577 105.989C246.392 105.841 247.167 105.627 247.755 105.338C248.356 105.043 248.663 104.701 248.737 104.459C248.783 104.332 248.817 104.191 248.817 103.976C248.817 103.869 248.803 103.748 248.79 103.614C248.763 103.473 248.75 103.352 248.683 103.11C248.496 102.245 248.249 101.393 247.989 100.554C247.447 98.8634 246.746 97.233 245.958 95.6429C245.17 94.0461 244.248 92.5163 243.232 91.0537C242.731 90.3156 242.204 89.5977 241.656 88.9066C241.382 88.5578 241.101 88.2223 240.814 87.8935C240.547 87.5715 240.22 87.2092 239.999 86.981L243.513 83.3378Z" fill="#FFC3BD"/>
<path d="M230.761 105.459L226.078 102.97L225.871 109.196C225.871 109.196 229.178 109.404 231.122 107.874L230.761 105.459Z" fill="#FFC3BD"/>
<path d="M222.558 138.919L226.419 96.7772L218.169 90.43L192.986 88.1019L188.61 135.779L222.558 138.919Z" fill="#019748"/>
<path opacity="0.8" d="M222.558 138.919L226.419 96.7772L218.169 90.43L192.986 88.1019L188.61 135.779L222.558 138.919Z" fill="white"/>
<path d="M226.419 96.7772L218.169 90.4301L220.333 98.0251L226.419 96.7772Z" fill="#019748"/>
<path d="M191.563 143.146C197.244 143.146 201.85 138.52 201.85 132.813C201.85 127.107 197.244 122.481 191.563 122.481C185.881 122.481 181.275 127.107 181.275 132.813C181.275 138.52 185.881 143.146 191.563 143.146Z" fill="#019748"/>
<path d="M196.651 139.279C200.206 136.458 200.811 131.277 198.003 127.706C195.194 124.136 190.036 123.528 186.481 126.349C182.926 129.169 182.321 134.351 185.129 137.921C187.937 141.492 193.096 142.1 196.651 139.279Z" fill="white"/>
<path d="M196.632 132.089L193.012 131.666L193.439 128.03L190.841 127.721L190.42 131.357L186.799 130.935L186.492 133.538L190.113 133.967L189.685 137.597L192.284 137.906L192.705 134.269L196.325 134.699L196.632 132.089Z" fill="#019748"/>
<path opacity="0.4" d="M220.26 105.513C220.12 107.063 218.75 108.203 217.207 108.062L198.837 106.365C197.294 106.224 196.159 104.849 196.299 103.299C196.439 101.749 197.809 100.608 199.352 100.749L217.722 102.447C219.265 102.588 220.4 103.963 220.26 105.513Z" fill="#019748"/>
<path opacity="0.4" d="M214 113.128C213.86 114.678 212.491 115.818 210.948 115.678L198.109 114.49C196.566 114.349 195.43 112.974 195.57 111.424C195.711 109.874 197.08 108.733 198.623 108.874L211.462 110.062C213.005 110.203 214.147 111.571 214 113.128Z" fill="#019748"/>
<path d="M223.219 103.339L223.927 107.988L225.864 109.189L226.078 102.97L223.219 103.339Z" fill="#FFC3BD"/>
<path d="M242.491 77.8497C245.437 78.373 249.558 86.8537 249.558 86.8537L242.137 93.5967C242.137 93.5967 236.238 87.1288 236.552 83.2776C236.819 80.0034 238.743 77.1854 242.491 77.8497Z" fill="#263238"/>
<path d="M272.063 222.451C272.137 222.451 272.217 222.438 272.29 222.411C272.992 222.169 273.459 220.861 273.666 220.103C273.68 220.056 273.666 220.009 273.626 219.982C273.593 219.955 273.539 219.948 273.499 219.969C273.286 220.083 271.402 221.089 271.342 221.841C271.335 221.955 271.362 222.122 271.542 222.257C271.716 222.391 271.889 222.451 272.063 222.451ZM273.366 220.318C273.038 221.364 272.618 222.055 272.217 222.196C272.043 222.257 271.869 222.216 271.689 222.075C271.582 221.995 271.576 221.914 271.582 221.867C271.616 221.404 272.718 220.687 273.366 220.318Z" fill="#019748"/>
<path d="M271.77 220.613C272.438 220.613 273.259 220.398 273.613 220.177C273.647 220.156 273.667 220.116 273.667 220.076C273.667 220.036 273.64 219.995 273.607 219.975C273.546 219.942 272.057 219.116 271.255 219.405C271.048 219.479 270.901 219.62 270.814 219.821C270.687 220.136 270.828 220.317 270.921 220.398C271.108 220.552 271.416 220.613 271.77 220.613ZM273.299 220.076C272.665 220.351 271.429 220.519 271.075 220.224C271.015 220.177 270.961 220.096 271.035 219.908C271.088 219.767 271.188 219.673 271.335 219.626C271.883 219.425 272.878 219.868 273.299 220.076Z" fill="#019748"/>
<path d="M232.952 237.38C233.626 237.38 234.361 237.246 234.876 237.132C234.922 237.118 234.962 237.078 234.969 237.031C234.976 236.984 234.949 236.93 234.902 236.91C234.615 236.776 232.057 235.588 231.415 236.025C231.335 236.078 231.235 236.186 231.248 236.387C231.262 236.662 231.382 236.883 231.596 237.051C231.91 237.299 232.411 237.38 232.952 237.38ZM234.468 236.977C233.707 237.118 232.31 237.306 231.729 236.87C231.569 236.749 231.489 236.588 231.475 236.38C231.469 236.286 231.509 236.246 231.542 236.226C231.896 235.978 233.406 236.508 234.468 236.977Z" fill="#019748"/>
<path d="M234.842 237.138C234.869 237.138 234.896 237.131 234.916 237.111C234.949 237.084 234.963 237.037 234.956 236.997C234.929 236.89 234.355 234.36 232.965 234.521C232.618 234.562 232.524 234.736 232.504 234.877C232.418 235.521 234.027 236.823 234.796 237.138C234.816 237.131 234.829 237.138 234.842 237.138ZM233.092 234.743C233.981 234.743 234.495 236.212 234.662 236.803C233.827 236.366 232.678 235.313 232.731 234.897C232.738 234.863 232.745 234.776 232.992 234.743C233.032 234.749 233.065 234.743 233.092 234.743Z" fill="#019748"/>
<path d="M223.272 58.4459L222.21 57.8957C222.21 57.8957 222.617 58.8954 223.272 58.4459Z" fill="#263238"/>
</svg>
