<svg width="60" height="60" viewBox="0 0 60 60" fill="none" xmlns="http://www.w3.org/2000/svg">
<path d="M57.1875 27.1875C57.1875 26.6902 56.99 26.2133 56.6383 25.8617C56.2867 25.51 55.8098 25.3125 55.3125 25.3125H53.4375C53.4375 24.0693 52.9436 22.877 52.0646 21.9979C51.1855 21.1189 49.9932 20.625 48.75 20.625H46.875V18.75H52.5C53.2459 18.75 53.9613 18.4537 54.4887 17.9262C55.0162 17.3988 55.3125 16.6834 55.3125 15.9375C55.3125 15.1916 55.0162 14.4762 54.4887 13.9488C53.9613 13.4213 53.2459 13.125 52.5 13.125H48.75V8.4375H32.8125C31.5693 8.4375 30.377 8.93136 29.4979 9.81044C28.6189 10.6895 28.125 11.8818 28.125 13.125H26.25C25.2554 13.125 24.3016 13.5201 23.5984 14.2233C22.8951 14.9266 22.5 15.8804 22.5 16.875H10.3125C9.56658 16.875 8.85121 17.1713 8.32376 17.6988C7.79632 18.2262 7.5 18.9416 7.5 19.6875C7.5 20.4334 7.79632 21.1488 8.32376 21.6762C8.85121 22.2037 9.56658 22.5 10.3125 22.5H19.6875V27.1875H23.4375V30.9375H15.9375C15.4402 30.9375 14.9633 31.135 14.6117 31.4867C14.26 31.8383 14.0625 32.3152 14.0625 32.8125C14.0625 33.3098 14.26 33.7867 14.6117 34.1383C14.9633 34.49 15.4402 34.6875 15.9375 34.6875H33.75V36.5625H52.5C52.9973 36.5625 53.4742 36.365 53.8258 36.0133C54.1775 35.6617 54.375 35.1848 54.375 34.6875C54.375 34.1902 54.1775 33.7133 53.8258 33.3617C53.4742 33.01 52.9973 32.8125 52.5 32.8125H44.0625V29.0625H55.3125C55.8098 29.0625 56.2867 28.865 56.6383 28.5133C56.99 28.1617 57.1875 27.6848 57.1875 27.1875Z" fill="#019748" fill-opacity="0.2"/>
<path d="M28.4536 46.0047L38.5763 32.7047L29.3564 26.2583L28.4536 46.0047Z" fill="#019748"/>
<path d="M5.625 29.0626L21.5625 28.1251L23.4375 44.2557C23.5113 44.9202 23.8091 45.5398 24.282 46.0126C24.5554 46.286 24.88 46.5029 25.2372 46.6509C25.5945 46.7989 25.9774 46.875 26.3641 46.875C26.7508 46.875 27.1337 46.7989 27.4909 46.6509C27.8482 46.5029 28.1728 46.286 28.4462 46.0126L28.4537 46.0051C28.9219 45.5369 29.2186 44.9246 29.2961 44.2671L30.9375 29.0626L49.6875 40.3126L54.082 5.15774C54.1099 4.93563 54.0761 4.71014 53.9843 4.50598C53.8925 4.30183 53.7462 4.1269 53.5616 4.0004C53.3769 3.87389 53.1609 3.80069 52.9374 3.78882C52.7139 3.77696 52.4914 3.82688 52.2943 3.93313L5.625 29.0626Z" fill="#019748"/>
<path d="M52.2941 3.93327L5.625 29.0627L21.5625 28.1252L53.088 3.80553C52.8166 3.75547 52.5362 3.80059 52.2941 3.93327Z" fill="#019748"/>
<path d="M49.6875 40.3124L54.082 5.15756C54.1088 4.9554 54.0837 4.74976 54.0091 4.55999C53.9344 4.37021 53.8128 4.20254 53.6555 4.07275L30.9375 29.0624L49.6875 40.3124Z" fill="#019748"/>
<path d="M38.5449 48.2886L42.2939 41.7279L43.9215 42.658L40.1725 49.2186L38.5449 48.2886Z" fill="#FFCC09"/>
<path d="M14.3311 39.6494L19.0179 34.9626L20.3435 36.2882L15.6567 40.975L14.3311 39.6494Z" fill="#FFCC09"/>
<path d="M12.4443 49.0874L19.0118 41.5832L20.4236 42.8188L13.8562 50.323L12.4443 49.0874Z" fill="#FFCC09"/>
<path d="M26.3687 56.7539L31.0596 48.3179L32.6983 49.2292L28.0074 57.6652L26.3687 56.7539Z" fill="#FFCC09"/>
<path d="M31.9482 46.4604L32.8853 44.5863L34.5616 45.4244L33.6245 47.2986L31.9482 46.4604Z" fill="#FFCC09"/>
<path d="M36.6318 52.0859L37.5689 50.2118L39.2452 51.0499L38.3081 52.9241L36.6318 52.0859Z" fill="#FFCC09"/>
<path d="M50.0977 41.1556C50.238 41.0873 50.359 40.9851 50.4498 40.8583C50.5406 40.7314 50.5983 40.5839 50.6177 40.4291L55.0122 5.27433C55.0615 4.88143 55.0016 4.48253 54.8392 4.12139C54.6768 3.76024 54.418 3.4508 54.0914 3.227C53.7647 3.0032 53.3827 2.87369 52.9872 2.85265C52.5918 2.83162 52.1982 2.91989 51.8497 3.10777L5.18055 28.2372C4.99258 28.3384 4.84478 28.5008 4.7616 28.6974C4.67841 28.894 4.66482 29.1131 4.72308 29.3185C4.78133 29.5239 4.90794 29.7032 5.08196 29.8269C5.25598 29.9505 5.467 30.0111 5.68012 29.9986L20.7336 29.1131L22.5058 44.3592C22.5969 45.1684 22.94 45.9285 23.4866 46.5321C24.0332 47.1357 24.7556 47.5523 25.5518 47.723C26.3481 47.8937 27.1778 47.8099 27.9238 47.4834C28.6698 47.1569 29.2943 46.6043 29.7092 45.9036L38.3225 34.5868L49.2053 41.1165C49.3391 41.1967 49.4907 41.2423 49.6465 41.2492C49.8024 41.256 49.9574 41.2239 50.0977 41.1556ZM30.5102 41.7553L31.7123 30.6213L36.7045 33.6167L30.5102 41.7553ZM32.3916 28.8418L35.8221 24.9996L34.4234 23.7508L30.2382 28.4383C30.1078 28.5843 30.0263 28.7673 30.0052 28.9619L28.3646 44.1575C28.3342 44.4094 28.2561 44.6532 28.1345 44.876L27.754 45.376C27.4838 45.6362 27.1461 45.8154 26.7792 45.8932C26.4123 45.9711 26.031 45.9446 25.6784 45.8167C25.3258 45.6887 25.0162 45.4645 24.7846 45.1694C24.553 44.8744 24.4088 44.5203 24.3684 44.1474L22.555 28.5437L39.1488 15.7425L38.0039 14.2579L21.2188 27.2063L9.80289 27.8778L52.7386 4.758C52.7841 4.73334 52.8356 4.72172 52.8873 4.72441C52.939 4.72711 52.9889 4.74402 53.0316 4.77328C53.0743 4.80255 53.1081 4.84302 53.1293 4.89026C53.1505 4.9375 53.1582 4.98967 53.1516 5.04101L48.9358 38.7676L32.3916 28.8418Z" fill="#333333"/>
<path d="M36.1133 21.877L49.0091 7.8174L50.391 9.08491L37.4952 23.1445L36.1133 21.877Z" fill="#333333"/>
<path d="M38.5449 48.2886L42.2939 41.7279L43.9215 42.658L40.1725 49.2186L38.5449 48.2886Z" fill="#333333"/>
<path d="M14.3315 39.647L19.0184 34.9602L20.344 36.2858L15.6572 40.9726L14.3315 39.647Z" fill="#333333"/>
<path d="M12.4443 49.0874L19.0118 41.5832L20.4236 42.8188L13.8562 50.323L12.4443 49.0874Z" fill="#333333"/>
<path d="M26.3687 56.7539L31.0596 48.3179L32.6983 49.2292L28.0074 57.6652L26.3687 56.7539Z" fill="#333333"/>
<path d="M31.9478 46.46L32.8848 44.5858L34.5611 45.4239L33.624 47.2981L31.9478 46.46Z" fill="#333333"/>
<path d="M36.6323 52.0854L37.5694 50.2113L39.2456 51.0494L38.3086 52.9236L36.6323 52.0854Z" fill="#333333"/>
</svg>
