<svg width="16" height="16" viewBox="0 0 16 16" fill="none" xmlns="http://www.w3.org/2000/svg">
<path fill-rule="evenodd" clip-rule="evenodd" d="M1.25229 2.58579C1.62736 2.21071 2.13607 2 2.6665 2H7.33317C7.70136 2 7.99984 2.29848 7.99984 2.66667C7.99984 3.03486 7.70136 3.33333 7.33317 3.33333H2.6665C2.48969 3.33333 2.32012 3.40357 2.1951 3.5286C2.07008 3.65362 1.99984 3.82319 1.99984 4V13.3333C1.99984 13.5101 2.07007 13.6797 2.1951 13.8047C2.32012 13.9298 2.48969 14 2.6665 14H11.9998C12.1766 14 12.3462 13.9298 12.4712 13.8047C12.5963 13.6797 12.6665 13.5101 12.6665 13.3333V8.66667C12.6665 8.29848 12.965 8 13.3332 8C13.7014 8 13.9998 8.29848 13.9998 8.66667V13.3333C13.9998 13.8638 13.7891 14.3725 13.4141 14.7475C13.039 15.1226 12.5303 15.3333 11.9998 15.3333H2.6665C2.13607 15.3333 1.62736 15.1226 1.25229 14.7475C0.877218 14.3725 0.666504 13.8638 0.666504 13.3333V4C0.666504 3.46957 0.877217 2.96086 1.25229 2.58579Z" fill="#333333"/>
<path fill-rule="evenodd" clip-rule="evenodd" d="M13.3332 1.91927C13.1349 1.91927 12.9448 1.99803 12.8046 2.13822L6.60183 8.34098L6.24943 9.75057L7.65902 9.39818L13.8618 3.19541C14.002 3.05522 14.0807 2.86508 14.0807 2.66682C14.0807 2.46856 14.002 2.27841 13.8618 2.13822C13.7216 1.99803 13.5314 1.91927 13.3332 1.91927ZM11.8618 1.19541C12.252 0.805172 12.7813 0.585938 13.3332 0.585938C13.8851 0.585938 14.4143 0.805172 14.8046 1.19541C15.1948 1.58565 15.4141 2.11493 15.4141 2.66682C15.4141 3.2187 15.1948 3.74798 14.8046 4.13822L8.47126 10.4716C8.38582 10.557 8.27876 10.6176 8.16154 10.6469L5.49488 11.3136C5.26769 11.3704 5.02737 11.3038 4.86178 11.1382C4.69619 10.9726 4.62963 10.7323 4.68642 10.5051L5.35309 7.83846C5.3824 7.72124 5.44301 7.61419 5.52845 7.52875L11.8618 1.19541Z" fill="#333333"/>
</svg>
