<svg width="25" height="24" viewBox="0 0 25 24" fill="none" xmlns="http://www.w3.org/2000/svg">
<path fill-rule="evenodd" clip-rule="evenodd" d="M15.069 3.72526C13.3186 2.74067 11.1814 2.74067 9.431 3.72526L6.431 5.41276C4.62046 6.43119 3.5 8.34699 3.5 10.4243V13.5758C3.5 15.6532 4.62046 17.569 6.431 18.5874L9.431 20.2749C11.1814 21.2595 13.3186 21.2595 15.069 20.2749L18.069 18.5874C19.8795 17.569 21 15.6532 21 13.5758V10.4243C21 8.34699 19.8795 6.43119 18.069 5.41276L15.069 3.72526ZM13 8.00012C13 7.58591 12.6642 7.25012 12.25 7.25012C11.8358 7.25012 11.5 7.58591 11.5 8.00012V12.6155C11.5 12.908 11.6701 13.1739 11.9357 13.2965L14.9357 14.6811C15.3118 14.8547 15.7574 14.6905 15.931 14.3144C16.1045 13.9383 15.9404 13.4927 15.5643 13.3192L13 12.1356V8.00012Z" fill="#019748"/>
</svg>
