<svg width="25" height="24" viewBox="0 0 25 24" fill="none" xmlns="http://www.w3.org/2000/svg">
<path fill-rule="evenodd" clip-rule="evenodd" d="M12.25 7.25C12.6642 7.25 13 7.58579 13 8V12.1355L15.5643 13.319C15.9404 13.4926 16.1045 13.9382 15.931 14.3143C15.7574 14.6904 15.3118 14.8545 14.9357 14.681L11.9357 13.2964C11.6701 13.1738 11.5 12.9079 11.5 12.6154V8C11.5 7.58579 11.8358 7.25 12.25 7.25Z" fill="#888888"/>
<path fill-rule="evenodd" clip-rule="evenodd" d="M9.431 3.72526C11.1814 2.74067 13.3186 2.74067 15.069 3.72526L18.069 5.41276C19.8795 6.43119 21 8.34699 21 10.4243V13.5758C21 15.6532 19.8795 17.569 18.069 18.5874L15.069 20.2749C13.3186 21.2595 11.1814 21.2595 9.431 20.2749L6.431 18.5874C4.62046 17.569 3.5 15.6532 3.5 13.5758V10.4243C3.5 8.34699 4.62046 6.43119 6.431 5.41276L9.431 3.72526ZM14.3336 5.03262C13.0399 4.30488 11.4601 4.30488 10.1664 5.03262L7.16639 6.72012C5.82816 7.47287 5 8.8889 5 10.4243V13.5758C5 15.1113 5.82816 16.5273 7.16639 17.28L10.1664 18.9675C11.4601 19.6953 13.0399 19.6953 14.3336 18.9675L17.3336 17.28C18.6718 16.5273 19.5 15.1113 19.5 13.5758V10.4243C19.5 8.8889 18.6718 7.47287 17.3336 6.72012L14.3336 5.03262Z" fill="#888888"/>
</svg>
