<svg width="25" height="24" viewBox="0 0 25 24" fill="none" xmlns="http://www.w3.org/2000/svg">
<path fill-rule="evenodd" clip-rule="evenodd" d="M5.64074 6.22256C4.52895 6.43574 3.80064 7.50979 4.01388 8.62186L5.02934 13.9176C5.12711 14.4275 5.52186 14.8052 6 14.9058V9.80008C6 7.83961 7.58883 6.25008 9.54959 6.25008H14.75C15.2484 6.25008 15.8192 6.24615 16.4186 6.24202H16.4186L16.4187 6.24202H16.4188H16.4188H16.4188H16.4189C17.0381 6.23775 17.6879 6.23328 18.3199 6.23271L18.2651 5.94658C18.0557 4.85453 17.0173 4.13253 15.927 4.31855C14.324 4.59204 12.3076 4.94419 10.7481 5.24322L5.64074 6.22256ZM19.849 6.24203L19.7382 5.6641C19.3762 3.77596 17.5757 2.5156 15.6747 2.83992C14.07 3.11371 12.041 3.46798 10.4656 3.77006L5.35826 4.74939C3.43258 5.11864 2.17152 6.97895 2.54072 8.90434L3.55617 14.2001C3.79198 15.4298 4.81292 16.31 6 16.4209V17.0001C6 18.5189 7.23122 19.7501 8.75 19.7501H8.99257L8.99393 19.7501L8.99523 19.7504L8.99627 19.7509L8.99783 19.7523C8.99843 19.7529 8.9989 19.7535 8.99923 19.7541L8.99984 19.7552C8.99986 19.7553 9 19.756 9 19.7575C9 20.1687 9.01412 20.779 9.16893 21.2998C9.24718 21.5631 9.37977 21.8697 9.62279 22.1158C9.8887 22.3851 10.2474 22.5404 10.6649 22.5287C11.3073 22.5107 11.6855 22.0884 11.8908 21.7873C11.995 21.6346 12.0832 21.4713 12.1516 21.3444L12.1591 21.3306C12.2305 21.1979 12.2826 21.1014 12.3366 21.0179L12.5518 20.6856C12.9297 20.1023 13.5774 19.7501 14.2724 19.7501H19.95C21.9105 19.7501 23.5 18.161 23.5 16.2003V9.86669C23.5 8.06135 22.2919 6.29912 20.2681 6.25029C20.1327 6.24702 19.9927 6.24429 19.849 6.24203ZM10.75 14.0001C11.3023 14.0001 11.75 13.5524 11.75 13.0001C11.75 12.4478 11.3023 12.0001 10.75 12.0001C10.1977 12.0001 9.74997 12.4478 9.74997 13.0001C9.74997 13.5524 10.1977 14.0001 10.75 14.0001ZM15.75 13.0001C15.75 13.5524 15.3023 14.0001 14.75 14.0001C14.1977 14.0001 13.75 13.5524 13.75 13.0001C13.75 12.4478 14.1977 12.0001 14.75 12.0001C15.3023 12.0001 15.75 12.4478 15.75 13.0001ZM18.75 14.0001C19.3023 14.0001 19.75 13.5524 19.75 13.0001C19.75 12.4478 19.3023 12.0001 18.75 12.0001C18.1977 12.0001 17.75 12.4478 17.75 13.0001C17.75 13.5524 18.1977 14.0001 18.75 14.0001Z" fill="#019748"/>
</svg>
