<svg width="25" height="24" viewBox="0 0 25 24" fill="none" xmlns="http://www.w3.org/2000/svg">
<path fill-rule="evenodd" clip-rule="evenodd" d="M5.64062 6.22219C4.52884 6.43537 3.80053 7.50942 4.01377 8.62149L5.02922 13.9172C5.15923 14.5952 5.81425 15.0395 6.49226 14.9095L6.77474 16.3826C5.28313 16.6686 3.84208 15.6913 3.55606 14.1997L2.5406 8.90397C2.17141 6.97858 3.43247 5.11827 5.35814 4.74902L10.4655 3.76969C12.0409 3.46761 14.0699 3.11334 15.6746 2.83955C17.5756 2.51523 19.3761 3.77559 19.7381 5.66373L19.8713 6.35847C19.9493 6.76528 19.6828 7.15829 19.276 7.23629C18.8692 7.3143 18.4762 7.04775 18.3982 6.64095L18.2649 5.94621C18.0555 4.85416 17.0172 4.13216 15.9269 4.31818C14.3239 4.59167 12.3075 4.94382 10.748 5.24285L5.64062 6.22219Z" fill="#888888"/>
<path fill-rule="evenodd" clip-rule="evenodd" d="M16.4637 7.7416C15.8562 7.74581 15.2713 7.74985 14.75 7.74985H9.54958C8.41755 7.74985 7.5 8.66752 7.5 9.79985V16.9999C7.5 17.6902 8.05964 18.2499 8.75 18.2499H8.99257C9.8251 18.2499 10.5 18.9248 10.5 19.7573C10.5 20.1707 10.5207 20.5827 10.6067 20.8722C10.6171 20.907 10.6275 20.9368 10.6376 20.9621C10.642 20.9558 10.6467 20.9491 10.6515 20.942C10.7053 20.8632 10.759 20.7665 10.8311 20.6327C10.8363 20.6231 10.8415 20.6133 10.8469 20.6033C10.9098 20.4864 10.9892 20.3388 11.0777 20.2022L11.2929 19.8699C11.9472 18.8597 13.0688 18.2499 14.2724 18.2499H19.95C21.0823 18.2499 22 17.3322 22 16.2001V9.86646C22 8.64764 21.2314 7.77374 20.2319 7.74962C19.1336 7.72312 17.7482 7.73271 16.4637 7.7416ZM10.5642 21.0472C10.5642 21.0468 10.5666 21.0447 10.5712 21.0421C10.5664 21.0463 10.5641 21.0476 10.5642 21.0472ZM16.4187 6.24179C17.7157 6.23286 19.1466 6.223 20.2681 6.25006C22.2919 6.29889 23.5 8.06112 23.5 9.86646V16.2001C23.5 18.1608 21.9105 19.7499 19.95 19.7499H14.2724C13.5774 19.7499 12.9297 20.102 12.5518 20.6854L12.3366 21.0176C12.2825 21.1012 12.2305 21.1977 12.159 21.3304L12.1516 21.3442C12.0832 21.4711 11.995 21.6343 11.8908 21.7871C11.6855 22.0882 11.3073 22.5105 10.6649 22.5285C10.2474 22.5401 9.8887 22.3849 9.62279 22.1156C9.37977 21.8694 9.24718 21.5629 9.16892 21.2996C9.01412 20.7788 9 20.1684 9 19.7573C9 19.7558 8.99986 19.7551 8.99984 19.755L8.99972 19.7546C8.99958 19.7543 8.99904 19.7532 8.99782 19.752C8.99661 19.7508 8.99558 19.7503 8.99523 19.7501L8.99486 19.75C8.99479 19.75 8.9945 19.7499 8.99392 19.7499C8.99358 19.7499 8.99313 19.7499 8.99257 19.7499H8.75C7.23122 19.7499 6 18.5186 6 16.9999V9.79985C6 7.83939 7.58883 6.24985 9.54958 6.24985H14.75C15.2485 6.24985 15.8193 6.24592 16.4187 6.24179Z" fill="#888888"/>
<path d="M11.75 13C11.75 13.5523 11.3023 14 10.75 14C10.1977 14 9.75 13.5523 9.75 13C9.75 12.4477 10.1977 12 10.75 12C11.3023 12 11.75 12.4477 11.75 13Z" fill="#888888"/>
<path d="M15.75 13C15.75 13.5523 15.3023 14 14.75 14C14.1977 14 13.75 13.5523 13.75 13C13.75 12.4477 14.1977 12 14.75 12C15.3023 12 15.75 12.4477 15.75 13Z" fill="#888888"/>
<path d="M19.75 13C19.75 13.5523 19.3023 14 18.75 14C18.1977 14 17.75 13.5523 17.75 13C17.75 12.4477 18.1977 12 18.75 12C19.3023 12 19.75 12.4477 19.75 13Z" fill="#888888"/>
</svg>
