<svg width="24" height="24" viewBox="0 0 24 24" fill="none" xmlns="http://www.w3.org/2000/svg">
<rect width="24" height="24" rx="8" fill="#019748" fill-opacity="0.1"/>
<path d="M16.9498 7.05023C15.6276 5.72811 13.8698 5 12 5C10.1302 5 8.37236 5.72811 7.05023 7.05023C5.72811 8.37236 5 10.1302 5 12C5 13.8698 5.72814 15.6276 7.05023 16.9498C8.37233 18.2719 10.1302 19 12 19C13.8698 19 15.6276 18.2719 16.9498 16.9498C18.2719 15.6276 19 13.8698 19 12C19 10.1302 18.2719 8.37239 16.9498 7.05023ZM12 11.5625C13.0856 11.5625 13.9688 12.4457 13.9688 13.5312C13.9688 14.4302 13.3629 15.1899 12.5382 15.4246C12.4789 15.4415 12.4375 15.4948 12.4375 15.5564V15.9251C12.4375 16.1607 12.2565 16.3634 12.0211 16.3745C11.7699 16.3863 11.5625 16.1861 11.5625 15.9375V15.5563C11.5625 15.4949 11.5213 15.4415 11.4622 15.4247C10.641 15.1912 10.0367 14.4373 10.0313 13.5435C10.0298 13.3049 10.2174 13.1008 10.4559 13.0939C10.7034 13.0868 10.9062 13.2853 10.9062 13.5312C10.9062 14.1602 11.4399 14.6669 12.0782 14.6223C12.617 14.5846 13.0534 14.1482 13.091 13.6094C13.1356 12.9711 12.6289 12.4375 12 12.4375C10.9144 12.4375 10.0312 11.5543 10.0312 10.4688C10.0312 9.56977 10.6371 8.81011 11.4618 8.57539C11.5211 8.55852 11.5625 8.50522 11.5625 8.44362V8.07486C11.5625 7.83927 11.7435 7.63657 11.9789 7.62549C12.2301 7.61368 12.4375 7.81386 12.4375 8.0625V8.4437C12.4375 8.50514 12.4787 8.55846 12.5378 8.57528C13.359 8.80879 13.9633 9.56274 13.9687 10.4565C13.9702 10.6951 13.7826 10.8992 13.5441 10.9061C13.2966 10.9132 13.0938 10.7147 13.0938 10.4688C13.0938 9.83979 12.5601 9.33311 11.9218 9.37773C11.383 9.41539 10.9466 9.85185 10.909 10.3906C10.8644 11.0289 11.3711 11.5625 12 11.5625Z" fill="#019748"/>
</svg>
