<svg width="25" height="24" viewBox="0 0 25 24" fill="none" xmlns="http://www.w3.org/2000/svg">
<path fill-rule="evenodd" clip-rule="evenodd" d="M2.75 7.8C2.75 5.83939 4.33939 4.25 6.3 4.25H17.7C19.6606 4.25 21.25 5.83939 21.25 7.8V10.3223L2.75 10.1729V7.8ZM16.5439 8.84949C17.0962 8.84949 17.5439 8.40177 17.5439 7.84949C17.5439 7.2972 17.0962 6.84949 16.5439 6.84949C16.3618 6.84949 16.191 6.89818 16.0439 6.98327C15.8969 6.89818 15.7261 6.84949 15.5439 6.84949C14.9917 6.84949 14.5439 7.2972 14.5439 7.84949C14.5439 8.40177 14.9917 8.84949 15.5439 8.84949C15.7261 8.84949 15.8969 8.80079 16.0439 8.71571C16.191 8.80079 16.3618 8.84949 16.5439 8.84949Z" fill="#019748"/>
<path fill-rule="evenodd" clip-rule="evenodd" d="M2.75 11.6729V16.2C2.75 18.1606 4.33939 19.75 6.3 19.75H17.7C19.6606 19.75 21.25 18.1606 21.25 16.2V11.8224L2.75 11.6729ZM5.79395 15.8495C5.79395 15.4353 6.12973 15.0995 6.54395 15.0995H9.04395C9.45816 15.0995 9.79395 15.4353 9.79395 15.8495C9.79395 16.2637 9.45816 16.5995 9.04395 16.5995H6.54395C6.12973 16.5995 5.79395 16.2637 5.79395 15.8495Z" fill="#019748"/>
</svg>
