<svg width="25" height="24" viewBox="0 0 25 24" fill="none" xmlns="http://www.w3.org/2000/svg">
<path fill-rule="evenodd" clip-rule="evenodd" d="M2.75 7.8C2.75 5.83939 4.33939 4.25 6.3 4.25H17.7C19.6606 4.25 21.25 5.83939 21.25 7.8V16.2C21.25 18.1606 19.6606 19.75 17.7 19.75H6.3C4.33939 19.75 2.75 18.1606 2.75 16.2V7.8ZM6.3 5.75C5.16782 5.75 4.25 6.66782 4.25 7.8V16.2C4.25 17.3322 5.16782 18.25 6.3 18.25H17.7C18.8322 18.25 19.75 17.3322 19.75 16.2V7.8C19.75 6.66782 18.8322 5.75 17.7 5.75H6.3Z" fill="#888888"/>
<path fill-rule="evenodd" clip-rule="evenodd" d="M5.79395 15.8496C5.79395 15.4354 6.12973 15.0996 6.54395 15.0996H9.04395C9.45816 15.0996 9.79395 15.4354 9.79395 15.8496C9.79395 16.2638 9.45816 16.5996 9.04395 16.5996H6.54395C6.12973 16.5996 5.79395 16.2638 5.79395 15.8496Z" fill="#888888"/>
<path d="M17.5439 7.84961C17.5439 8.40189 17.0962 8.84961 16.5439 8.84961C15.9917 8.84961 15.5439 8.40189 15.5439 7.84961C15.5439 7.29732 15.9917 6.84961 16.5439 6.84961C17.0962 6.84961 17.5439 7.29732 17.5439 7.84961Z" fill="#888888"/>
<path d="M16.5439 7.84961C16.5439 8.40189 16.0962 8.84961 15.5439 8.84961C14.9917 8.84961 14.5439 8.40189 14.5439 7.84961C14.5439 7.29732 14.9917 6.84961 15.5439 6.84961C16.0962 6.84961 16.5439 7.29732 16.5439 7.84961Z" fill="#888888"/>
<path fill-rule="evenodd" clip-rule="evenodd" d="M3.24991 10.2499L20.2499 10.2499L20.2499 11.7499L3.24991 11.7499L3.24991 10.2499Z" fill="#888888"/>
</svg>
