<svg width="16" height="16" viewBox="0 0 16 16" fill="none" xmlns="http://www.w3.org/2000/svg">
<path fill-rule="evenodd" clip-rule="evenodd" d="M1.3335 4.00016C1.3335 3.63197 1.63197 3.3335 2.00016 3.3335H14.0002C14.3684 3.3335 14.6668 3.63197 14.6668 4.00016C14.6668 4.36835 14.3684 4.66683 14.0002 4.66683H2.00016C1.63197 4.66683 1.3335 4.36835 1.3335 4.00016Z" fill="#333333"/>
<path fill-rule="evenodd" clip-rule="evenodd" d="M6.6665 1.99984C6.48969 1.99984 6.32012 2.07007 6.1951 2.1951C6.07007 2.32012 5.99984 2.48969 5.99984 2.6665V3.33317H9.99984V2.6665C9.99984 2.48969 9.9296 2.32012 9.80457 2.1951C9.67955 2.07007 9.50998 1.99984 9.33317 1.99984H6.6665ZM11.3332 3.33317V2.6665C11.3332 2.13607 11.1225 1.62736 10.7474 1.25229C10.3723 0.877218 9.8636 0.666504 9.33317 0.666504H6.6665C6.13607 0.666504 5.62736 0.877218 5.25229 1.25229C4.87722 1.62736 4.6665 2.13607 4.6665 2.6665V3.33317H3.33317C2.96498 3.33317 2.6665 3.63165 2.6665 3.99984V13.3332C2.6665 13.8636 2.87722 14.3723 3.25229 14.7474C3.62736 15.1225 4.13607 15.3332 4.6665 15.3332H11.3332C11.8636 15.3332 12.3723 15.1225 12.7474 14.7474C13.1225 14.3723 13.3332 13.8636 13.3332 13.3332V3.99984C13.3332 3.63165 13.0347 3.33317 12.6665 3.33317H11.3332ZM3.99984 4.6665V13.3332C3.99984 13.51 4.07007 13.6795 4.1951 13.8046C4.32012 13.9296 4.48969 13.9998 4.6665 13.9998H11.3332C11.51 13.9998 11.6795 13.9296 11.8046 13.8046C11.9296 13.6795 11.9998 13.51 11.9998 13.3332V4.6665H3.99984Z" fill="#333333"/>
<path fill-rule="evenodd" clip-rule="evenodd" d="M6.66667 6.6665C7.03486 6.6665 7.33333 6.96498 7.33333 7.33317V11.3332C7.33333 11.7014 7.03486 11.9998 6.66667 11.9998C6.29848 11.9998 6 11.7014 6 11.3332V7.33317C6 6.96498 6.29848 6.6665 6.66667 6.6665Z" fill="#333333"/>
<path fill-rule="evenodd" clip-rule="evenodd" d="M9.33317 6.6665C9.70136 6.6665 9.99984 6.96498 9.99984 7.33317V11.3332C9.99984 11.7014 9.70136 11.9998 9.33317 11.9998C8.96498 11.9998 8.6665 11.7014 8.6665 11.3332V7.33317C8.6665 6.96498 8.96498 6.6665 9.33317 6.6665Z" fill="#333333"/>
</svg>
