<svg width="24" height="24" viewBox="0 0 24 24" fill="none" xmlns="http://www.w3.org/2000/svg">
<rect width="24" height="24" rx="8" fill="#019748" fill-opacity="0.1"/>
<path fill-rule="evenodd" clip-rule="evenodd" d="M12 5.875C12.7294 5.875 13.4985 6.20851 13.9119 6.92069L18.7489 15.2525C19.1347 15.9169 19.0509 16.6527 18.6681 17.2068C18.2882 17.7565 17.6204 18.125 16.837 18.125H7.16298C6.3796 18.125 5.71178 17.7565 5.33194 17.2068C4.94908 16.6527 4.86533 15.9169 5.25106 15.2525L10.0881 6.92069C10.5015 6.20852 11.2706 5.875 12 5.875ZM12 8.5C12.3965 8.5 12.718 8.8134 12.718 9.2V12.7C12.718 13.0866 12.3965 13.4 12 13.4C11.6035 13.4 11.2821 13.0866 11.2821 12.7V9.2C11.2821 8.8134 11.6035 8.5 12 8.5ZM11.7607 14.8C11.7607 14.6711 11.8679 14.5667 12 14.5667C12.1322 14.5667 12.2394 14.6711 12.2394 14.8C12.2394 14.9289 12.1322 15.0333 12 15.0333C11.8679 15.0333 11.7607 14.9289 11.7607 14.8ZM12.718 14.8C12.718 15.1866 12.3965 15.5 12 15.5C11.6035 15.5 11.2821 15.1866 11.2821 14.8C11.2821 14.4134 11.6035 14.1 12 14.1C12.3965 14.1 12.718 14.4134 12.718 14.8Z" fill="#019748"/>
</svg>
