<svg width="31" height="30" viewBox="0 0 31 30" fill="none" xmlns="http://www.w3.org/2000/svg">
<g clip-path="url(#clip0_4121:10267)">
<path d="M13.1309 23.8257H14.8887V27.356H13.1309V23.8257Z" fill="#D9D9D9"/>
<path d="M14.0098 23.8257H14.8887V27.356H14.0098V23.8257Z" fill="#D9D9D9"/>
<path d="M13.1309 6.17432H14.8887V9.70459H13.1309V6.17432Z" fill="#D9D9D9"/>
<path d="M14.0098 6.17432H14.8887V9.70459H14.0098V6.17432Z" fill="#D9D9D9"/>
<path d="M15.9201 28.076C15.2932 28.1814 14.6504 28.2348 14.0094 28.2348C13.3684 28.2348 12.7256 28.1814 12.0986 28.076L12.3898 26.3428C12.9213 26.4318 13.465 26.4764 14.0094 26.4764C14.5537 26.4764 15.0975 26.4318 15.6289 26.3428L15.9201 28.076Z" fill="#9C9C9C"/>
<path d="M15.9205 28.076C15.2936 28.1814 14.6508 28.2348 14.0098 28.2348V26.4764C14.5541 26.4764 15.0978 26.4318 15.6293 26.3428L15.9205 28.076Z" fill="#9C9C9C"/>
<path d="M5.89648 23.6309L8.39235 21.135L9.63512 22.3778L7.13926 24.8736L5.89648 23.6309Z" fill="#D9D9D9"/>
<path d="M3.41895 15.8862H6.94922V17.644H3.41895V15.8862Z" fill="#D9D9D9"/>
<path d="M5.89746 9.89746L7.14023 8.65469L9.63609 11.1505L8.39332 12.3933L5.89746 9.89746Z" fill="#D9D9D9"/>
<path d="M14.0102 24.5374C18.3024 24.5374 21.782 21.0578 21.782 16.7655C21.782 12.4732 18.3024 8.99365 14.0102 8.99365C9.71787 8.99365 6.23828 12.4732 6.23828 16.7655C6.23828 21.0578 9.71787 24.5374 14.0102 24.5374Z" fill="#A4A4A4"/>
<path d="M21.7816 16.7655C21.7816 21.0575 18.3018 24.5374 14.0098 24.5374V8.99365C18.3018 8.99365 21.7816 12.4735 21.7816 16.7655Z" fill="#A4A4A4"/>
<path d="M16.6611 17.6519H18.4189V19.4097H16.6611V17.6519Z" fill="#D9D9D9"/>
<path d="M9.60059 17.6519H11.3584V19.4097H9.60059V17.6519Z" fill="#D9D9D9"/>
<path d="M13.1309 19.4165H14.8887V21.1743H13.1309V19.4165Z" fill="#D9D9D9"/>
<path d="M15.9585 14.955C16.0347 13.8841 15.2283 12.9541 14.1574 12.8779C13.0864 12.8018 12.1565 13.6082 12.0803 14.6791C12.0041 15.75 12.8105 16.6799 13.8815 16.7561C14.9524 16.8323 15.8823 16.0259 15.9585 14.955Z" fill="#D9D9D9"/>
<path d="M14.0098 19.4165H14.8887V21.1743H14.0098V19.4165Z" fill="#D9D9D9"/>
<path d="M15.9527 14.8224C15.9527 15.8952 15.0826 16.7653 14.0098 16.7653V12.8794C15.0826 12.8794 15.9527 13.7495 15.9527 14.8224Z" fill="#D9D9D9"/>
<path d="M15.9201 5.4541L15.6289 7.1873C15.0975 7.09824 14.5537 7.05371 14.0094 7.05371C13.465 7.05371 12.9213 7.09824 12.3898 7.1873L12.0986 5.4541C12.7256 5.34863 13.3678 5.2959 14.0094 5.2959C14.651 5.2959 15.2932 5.34863 15.9201 5.4541Z" fill="#9C9C9C"/>
<path d="M15.9205 5.4541L15.6293 7.1873C15.0978 7.09824 14.5541 7.05371 14.0098 7.05371V5.2959C14.6514 5.2959 15.2936 5.34863 15.9205 5.4541Z" fill="#9C9C9C"/>
<path d="M7.36226 26.1143C6.84435 25.7452 6.35205 25.3283 5.89906 24.8753C5.44607 24.4224 5.02912 23.93 4.66016 23.4121L6.09172 22.3921C6.40432 22.8308 6.75764 23.248 7.14201 23.6323C7.52638 24.0167 7.94369 24.3701 8.3825 24.6828L7.36226 26.1143Z" fill="#9C9C9C"/>
<path d="M2.69859 18.6758C2.59336 18.0487 2.54004 17.4058 2.54004 16.7651C2.54004 16.1244 2.59336 15.4816 2.69859 14.8545L4.43215 15.1453C4.34303 15.6766 4.29785 16.2216 4.29785 16.7651C4.29785 17.3087 4.34303 17.8537 4.43215 18.385L2.69859 18.6758Z" fill="#9C9C9C"/>
<path d="M6.09269 11.1382L4.66113 10.1182C5.0301 9.60033 5.44699 9.10803 5.90016 8.65492C6.35303 8.20199 6.84533 7.78516 7.36324 7.41602L8.38348 8.84752C7.94467 9.16023 7.52736 9.51367 7.1431 9.89793C6.75861 10.2823 6.40529 10.6996 6.09269 11.1382Z" fill="#9C9C9C"/>
<path d="M26.585 7.5001V26.2501C26.585 28.3212 24.906 30.0001 22.835 30.0001C20.7639 30.0001 19.085 28.3212 19.085 26.2501V7.5001L22.835 6.47998L26.585 7.5001Z" fill="#59AA70"/>
<path d="M26.585 7.5001V26.2501C26.585 28.3212 24.906 30.0001 22.835 30.0001V6.47998L26.585 7.5001Z" fill="#59AA70"/>
<path d="M19.085 2.64258H26.585V7.5H19.085V2.64258Z" fill="#EAF6FF"/>
<path d="M22.835 2.64258H26.585V7.5H22.835V2.64258Z" fill="#EAF6FF"/>
<path d="M17.21 0H28.46V3.75H17.21V0Z" fill="#59AA70"/>
<path d="M22.835 0H28.46V3.75H22.835V0Z" fill="#59AA70"/>
<path d="M21.9561 10.6968H23.7139V23.053H21.9561V10.6968Z" fill="#FFD15C"/>
<path d="M22.835 10.6968H23.7139V23.053H22.835V10.6968Z" fill="#FFD15C"/>
</g>
<defs>
<clipPath id="clip0_4121:10267">
<rect width="30" height="30" fill="white" transform="translate(0.5)"/>
</clipPath>
</defs>
</svg>
