<svg width="31" height="30" viewBox="0 0 31 30" fill="none" xmlns="http://www.w3.org/2000/svg">
<path d="M6.83806 2.82838C8.96067 0.705645 12.4022 0.705645 14.5249 2.82838L15.5 3.8035L16.4751 2.82838C18.5977 0.705645 22.0393 0.705645 24.1619 2.82838C26.2845 4.951 26.2845 8.39244 24.1619 10.5152L23.1868 11.4903L16.5608 18.1163C15.9749 18.7021 15.0251 18.7021 14.4392 18.1163L7.81317 11.4903L6.83806 10.5152C4.71544 8.39256 4.71544 4.951 6.83806 2.82838Z" fill="#59AA70"/>
<path d="M24.1618 2.82844C23.404 2.07059 22.4779 1.58484 21.5039 1.36816C21.6111 1.45992 21.7166 1.55508 21.8181 1.65656C23.9407 3.77918 23.9407 7.22062 21.8181 9.34336L20.843 10.3185L14.217 16.9445C14.0461 17.1153 13.8437 17.2349 13.6289 17.3061L14.4391 18.1164C15.025 18.7022 15.9748 18.7022 16.5607 18.1164L23.1867 11.4903L24.1618 10.5152C26.2845 8.39262 26.2845 4.95105 24.1618 2.82844Z" fill="#4C885D"/>
<path d="M28.192 4.46654C27.4608 4.4799 26.8887 5.1072 26.8887 5.83845V11.7053C26.8887 12.0161 26.7652 12.3142 26.5455 12.534L20.8007 18.2787C19.9217 19.1578 19.4277 20.3501 19.4277 21.5933V23.9956H25.4825V22.4381C25.4825 21.8699 25.6888 21.3211 26.0631 20.8938L28.9642 17.5818C29.3385 17.1544 29.5449 16.6056 29.5449 16.0375V5.79439C29.5449 5.05259 28.9368 4.45283 28.192 4.46654Z" fill="#FCC4AE"/>
<path d="M28.8806 4.64551C28.9304 4.78496 28.9589 4.93461 28.9589 5.09117V15.3342C28.9589 15.9023 28.7525 16.4511 28.3782 16.8785L25.4771 20.1904C25.1029 20.6178 24.8965 21.1666 24.8965 21.7347V23.9954H25.4824V22.4379C25.4824 21.8697 25.6888 21.3209 26.0631 20.8936L28.9642 17.5816C29.3385 17.1542 29.5448 16.6054 29.5448 16.0373V5.7943C29.5448 5.30305 29.2772 4.87531 28.8806 4.64551Z" fill="#F2AD97"/>
<path d="M27.1603 13.7621C26.7532 13.3697 26.1544 13.3053 25.6644 13.5348C25.7808 13.5918 25.8903 13.6674 25.9885 13.7621C26.5248 14.2791 26.5307 15.1333 26.0061 15.6579L23.0237 18.6404C22.8568 18.8073 22.8628 19.0795 23.0368 19.2389C23.2003 19.3886 23.4529 19.3831 23.6097 19.2263L27.178 15.6579C27.7027 15.1332 27.6967 14.2791 27.1603 13.7621Z" fill="#F2AD97"/>
<path d="M26.9284 28.1772V24.5815C26.9284 24.258 26.666 23.9956 26.3424 23.9956H18.5645C18.2409 23.9956 17.9785 24.258 17.9785 24.5815V28.1772C17.9785 28.5008 18.2409 28.7631 18.5645 28.7631H26.3424C26.666 28.7631 26.9284 28.5008 26.9284 28.1772Z" fill="#59AA70"/>
<path d="M23.4127 24.9331H23.3691C23.2398 24.9331 23.1348 24.8281 23.1348 24.6987C23.1348 24.5694 23.2398 24.4644 23.3691 24.4644H23.4127C23.5421 24.4644 23.6471 24.5694 23.6471 24.6987C23.6471 24.8281 23.5421 24.9331 23.4127 24.9331ZM22.4316 24.9331H18.6816C18.5523 24.9331 18.4473 24.8281 18.4473 24.6987C18.4473 24.5694 18.5523 24.4644 18.6816 24.4644H22.4316C22.561 24.4644 22.666 24.5694 22.666 24.6987C22.666 24.8281 22.5611 24.9331 22.4316 24.9331Z" fill="#59AA70"/>
<path d="M18.5645 28.7631C18.2409 28.7631 17.9785 28.5008 17.9785 28.1772V26.4194H23.9987C24.3222 26.4194 24.5846 26.157 24.5846 25.8335V23.9956H26.3424C26.666 23.9956 26.9284 24.258 26.9284 24.5815V28.1772C26.9284 28.5008 26.666 28.7631 26.3424 28.7631H18.5645Z" fill="#59AA70"/>
<path d="M18.5645 28.7631C18.2409 28.7631 17.9785 28.5008 17.9785 28.1772V27.5913H25.1705C25.4941 27.5913 25.7565 27.3289 25.7565 27.0053V23.9956H26.3424C26.666 23.9956 26.9284 24.258 26.9284 24.5815V28.1772C26.9284 28.5008 26.666 28.7631 26.3424 28.7631H18.5645Z" fill="#4C885D"/>
<path d="M5.51762 22.4381V23.9956H11.5723V21.5933C11.5723 20.35 11.0785 19.1578 10.1994 18.2787L4.45461 12.534C4.23488 12.3142 4.11137 12.0161 4.11137 11.7053V5.83845C4.11137 5.1072 3.53926 4.4799 2.80812 4.46654C2.06316 4.45283 1.45508 5.05259 1.45508 5.79439V16.0374C1.45508 16.6055 1.66145 17.1543 2.03574 17.5817L4.93684 20.8936C5.31125 21.321 5.51762 21.8698 5.51762 22.4381Z" fill="#FCC4AE"/>
<path d="M10.9863 23.9957H11.5722V21.5933C11.5722 20.3501 11.0784 19.1578 10.1992 18.2788L9.61328 17.6929C10.4923 18.5719 10.9863 19.7643 10.9863 21.0074V23.9957Z" fill="#F2AD97"/>
<path d="M3.83939 13.7621C4.2465 13.3697 4.84533 13.3053 5.33529 13.5348C5.21892 13.5918 5.10947 13.6674 5.01127 13.7621C4.4749 14.2791 4.46904 15.1333 4.99357 15.6579L7.97599 18.6404C8.14287 18.8073 8.13689 19.0795 7.96287 19.2389C7.79939 19.3886 7.54685 19.3831 7.39005 19.2263L3.8217 15.6579C3.29705 15.1332 3.30303 14.2791 3.83939 13.7621Z" fill="#F2AD97"/>
<path d="M13.0211 28.1772V24.5815C13.0211 24.258 12.7587 23.9956 12.4352 23.9956H4.65723C4.33367 23.9956 4.07129 24.258 4.07129 24.5815V28.1772C4.07129 28.5008 4.33367 28.7631 4.65723 28.7631H12.4352C12.7587 28.7631 13.0211 28.5008 13.0211 28.1772Z" fill="#59AA70"/>
<path d="M4.65723 28.7631C4.33367 28.7631 4.07129 28.5008 4.07129 28.1772V27.5913H11.2633C11.5869 27.5913 11.8493 27.3289 11.8493 27.0053V23.9956H12.4352C12.7587 23.9956 13.0211 24.258 13.0211 24.5815V28.1772C13.0211 28.5008 12.7587 28.7631 12.4352 28.7631H4.65723Z" fill="#4C885D"/>
<path d="M18.7296 8.58432H16.6653V6.52006C16.6653 5.87658 16.1437 5.35498 15.5001 5.35498C14.8566 5.35498 14.3349 5.8767 14.3349 6.52006V8.58432H12.2707C11.6272 8.58432 11.1055 9.10592 11.1055 9.74951C11.1055 10.3931 11.6271 10.9147 12.2707 10.9147H14.3349V12.979C14.3349 13.6224 14.8565 14.1442 15.5001 14.1442C16.1436 14.1442 16.6653 13.6224 16.6653 12.979V10.9147H18.7296C19.373 10.9147 19.8946 10.3931 19.8946 9.74951C19.8946 9.10592 19.373 8.58432 18.7296 8.58432Z" fill="white"/>
</svg>
