<svg width="40" height="40" viewBox="0 0 40 40" fill="none" xmlns="http://www.w3.org/2000/svg">
<rect width="40" height="40" rx="20" fill="#019748" fill-opacity="0.2"/>
<mask id="mask0_4389:10942" style="mask-type:alpha" maskUnits="userSpaceOnUse" x="0" y="0" width="40" height="40">
<rect width="40" height="40" rx="20" fill="#EDEDED"/>
</mask>
<g mask="url(#mask0_4389:10942)">
<path d="M19.4972 6.7529C19.4972 6.7529 22.2808 7.0848 22.4865 9.35003L19.8048 10.5884L16.7856 9.34997C16.7856 8.04033 17.724 6.9499 18.9651 6.71436C19.1089 6.71956 19.3252 6.7529 19.4972 6.7529Z" fill="#4B4B4B"/>
<path d="M23.1574 9.34986L22.0583 10.0476L21.1453 9.34986C21.1453 8.04003 20.207 6.94947 18.9656 6.71471C19.1286 6.68319 19.2963 6.66711 19.4686 6.66711H20.4747C21.9563 6.66711 23.1574 7.86835 23.1574 9.34986Z" fill="#333333"/>
<path d="M10.0792 21.2434V26.9889C10.0792 28.1002 10.9801 29.001 12.0913 29.001H27.8525C28.9638 29.001 29.8646 28.1001 29.8646 26.9889V21.4557L10.0792 21.2434Z" fill="#333333"/>
<path d="M30.1328 37.8546V38.6595C30.1328 39.4005 29.5325 40.0009 28.7914 40.0009H9.34141C8.60033 40.0009 8 39.4006 8 38.6595V37.8546C8 34.8915 10.4024 32.4891 13.3655 32.4891H14.6525L19.6365 34.4391L25.2911 32.4891L25.6898 32.5167C28.7708 33.0242 30.1328 34.8915 30.1328 37.8546Z" fill="#019748"/>
<path d="M31.9437 37.8546V38.6595C31.9437 39.4005 31.3434 40.0009 30.6023 40.0009H28.5902C29.3314 40.0009 29.9316 39.4006 29.9316 38.6595V37.8546C29.9316 35.1222 27.9323 32.8244 25.2911 32.4891H26.5782C29.5413 32.4891 31.9437 34.8915 31.9437 37.8546Z" fill="#019748"/>
<path d="M22.5392 35.2384L20.9201 36.8561C20.3963 37.38 19.5472 37.38 19.0234 36.8561L17.4043 35.2384H22.5392Z" fill="#FCF1F2"/>
<path d="M27.1816 23.5684H28.959C30.0887 23.5684 31.0046 22.6526 31.0046 21.5229C31.0046 20.7183 30.54 20.0222 29.8646 19.6882L29.0397 19.0059L27.1816 19.4773V23.5684Z" fill="#FFC3BD"/>
<path d="M28.9927 22.0256H27.1818C26.904 22.0256 26.6788 21.8005 26.6788 21.5227C26.6788 21.2448 26.904 21.0197 27.1818 21.0197H28.9927C29.2706 21.0197 29.4957 21.2448 29.4957 21.5227C29.4958 21.8005 29.2706 22.0256 28.9927 22.0256Z" fill="#CC9E99"/>
<path d="M12.7624 19.4773L10.985 18.8066L10.0794 19.6882C9.40397 20.0223 8.93945 20.7184 8.93945 21.5229C8.93945 22.6527 9.85527 23.5685 10.985 23.5685H12.7624V19.4773Z" fill="#FFC3BD"/>
<path d="M12.6951 22.0256H10.9512C10.6734 22.0256 10.4482 21.8005 10.4482 21.5227C10.4482 21.2448 10.6734 21.0197 10.9512 21.0197H12.6951C12.9729 21.0197 13.198 21.2448 13.198 21.5227C13.1981 21.8005 12.9729 22.0256 12.6951 22.0256Z" fill="#CC9E99"/>
<path d="M25.2914 32.4887L22.5396 35.2385H17.4048L14.653 32.4887H16.7194C16.9045 32.4887 17.0547 32.3384 17.0547 32.1533V29.1353H22.8897V32.1533C22.8897 32.3384 23.04 32.4887 23.2251 32.4887H25.2914Z" fill="#FFC3BD"/>
<path d="M27.1818 12.7706V22.2609C27.1818 23.7243 26.7829 25.0945 26.0879 26.2687C24.716 28.587 14.5569 28.587 13.185 26.2687C12.4901 25.0945 12.0912 23.7243 12.0912 22.2609V12.7706H27.1818Z" fill="#FFD5D0"/>
<path d="M27.8525 19.4776V22.261C27.8525 23.7243 27.4536 25.0945 26.7586 26.2688C25.941 26.5137 25.1618 25.8165 25.2026 25.3717C25.613 24.4174 25.8403 23.3657 25.8403 22.261V18.1066L27.8525 19.4776Z" fill="#FFC3BD"/>
<path d="M28.5232 16.0566L27.8525 19.4771H26.377C25.7103 19.4771 25.1698 18.9365 25.1698 18.2698C25.1698 17.9365 25.0343 17.6347 24.8163 17.4161C24.5977 17.1981 24.2959 17.0626 23.9626 17.0626H22.2523C20.9927 17.0626 19.9719 16.0419 19.9719 14.7823C19.9719 15.412 19.7171 15.9822 19.3039 16.3947C18.8914 16.8078 18.3213 17.0627 17.6915 17.0627H15.9812C15.3146 17.0627 14.774 17.6032 14.774 18.2699C14.774 18.6032 14.6385 18.9051 14.4206 19.1237C14.2019 19.3417 13.9001 19.4771 13.5668 19.4771H10.9846C10.6594 19.4771 10.3521 19.5529 10.0792 19.6884V16.0566C10.0792 12.3524 13.0819 9.34973 16.7861 9.34973H21.3468C25.0511 9.34967 28.5232 12.3523 28.5232 16.0566Z" fill="#4B4B4B"/>
<path d="M29.8646 16.0566V19.6884C29.5916 19.5529 29.2844 19.4771 28.9592 19.4771H27.8525V16.0566C27.8525 12.3524 24.8499 9.34973 21.1456 9.34973H23.1577C26.8618 9.34973 29.8646 12.3524 29.8646 16.0566Z" fill="#333333"/>
<path d="M26.0416 35.9763C25.486 35.9763 25.0355 36.4267 25.0355 36.9824V37.9884L26.0416 38.4372L27.0476 37.9884V36.9824C27.0476 36.4268 26.5972 35.9763 26.0416 35.9763Z" fill="#F0F7F7"/>
<path d="M26.7791 37.9884H23.4927C23.3075 37.9884 23.1573 38.1385 23.1573 38.3238V40.0004H27.1144V38.3237C27.1144 38.1385 26.9643 37.9884 26.7791 37.9884Z" fill="white"/>
<path d="M28.9256 38.3238V40.0005H26.9136V38.3238C26.9136 38.1387 26.7633 37.9884 26.5782 37.9884H28.5903C28.7754 37.9885 28.9256 38.1387 28.9256 38.3238Z" fill="#F0F7F7"/>
<path d="M24.6492 27.4568C23.2233 28.8833 22.0882 30.0558 19.9125 30.0558C19.5717 30.0558 18.9658 30.0778 18.9658 30.0778C16.5031 29.7639 14.395 28.3132 13.1858 26.2682L14.9564 25.2474C15.8733 24.7189 16.9128 24.4406 17.9712 24.4406H21.9726C23.0309 24.4406 24.0705 24.7189 24.9873 25.2474L25.2026 25.3715C25.2026 25.3715 25.1166 26.9899 24.6492 27.4568Z" fill="#FCF1F2"/>
<path d="M26.758 26.268C26.42 26.84 26.0116 27.3659 25.5441 27.8327C24.1182 29.2592 22.1478 30.1412 19.972 30.1412C19.6319 30.1412 19.2966 30.1197 18.9673 30.0775C21.7761 29.7187 24.1229 27.8816 25.2027 25.3712L26.758 26.268Z" fill="#F4E5E0"/>
<path d="M23.8283 23.0317C23.5504 23.0317 23.3253 22.8065 23.3253 22.5287V21.5226C23.3253 21.2448 23.5505 21.0197 23.8283 21.0197C24.1061 21.0197 24.3313 21.2448 24.3313 21.5226V22.5287C24.3314 22.8065 24.1062 23.0317 23.8283 23.0317Z" fill="#CC9E99"/>
<path d="M16.1155 23.0317C15.8377 23.0317 15.6125 22.8065 15.6125 22.5287V21.5226C15.6125 21.2448 15.8377 21.0197 16.1155 21.0197C16.3933 21.0197 16.6185 21.2448 16.6185 21.5226V22.5287C16.6185 22.8065 16.3933 23.0317 16.1155 23.0317Z" fill="#CC9E99"/>
</g>
</svg>
