<svg width="31" height="30" viewBox="0 0 31 30" fill="none" xmlns="http://www.w3.org/2000/svg">
<g clip-path="url(#clip0_4121:10321)">
<path d="M16.0274 3.21051V26.7896C16.0274 27.9898 15.0545 28.9635 13.8535 28.9635H2.67383C1.47365 28.9635 0.5 27.9898 0.5 26.7896V3.21051C0.5 2.00951 1.47365 1.03662 2.67389 1.03662H13.8536C15.0545 1.03662 16.0274 2.00951 16.0274 3.21051Z" fill="#333333" fill-opacity="0.8"/>
<path d="M14.883 3.3549V26.6453C14.883 27.2306 14.4088 27.7048 13.8236 27.7048H2.70305C2.1177 27.7048 1.64355 27.2306 1.64355 26.6453V3.3549C1.64355 2.76955 2.11775 2.29541 2.70305 2.29541H13.8236C14.4088 2.29541 14.883 2.76961 14.883 3.3549Z" fill="white"/>
<path d="M14.8836 3.3549V19.4027H1.64404V3.3549C1.64404 2.76955 2.11824 2.29541 2.70353 2.29541H13.824C14.4094 2.29541 14.8836 2.76961 14.8836 3.3549Z" fill="#59AA70"/>
<path d="M12.1366 21.9526H4.38994C3.81859 21.9526 3.35547 22.4158 3.35547 22.9871V23.9254C3.35547 24.4967 3.81859 24.9598 4.38994 24.9598H12.1366C12.7079 24.9598 13.171 24.4967 13.171 23.9254V22.9871C13.171 22.4158 12.7079 21.9526 12.1366 21.9526Z" fill="#59AA70"/>
<path d="M8.26379 13.9006C10.2872 13.9006 11.9275 12.2603 11.9275 10.2369C11.9275 8.21353 10.2872 6.57324 8.26379 6.57324C6.24039 6.57324 4.6001 8.21353 4.6001 10.2369C4.6001 12.2603 6.24039 13.9006 8.26379 13.9006Z" fill="#FFD15C"/>
<path d="M7.83967 11.4944C7.67268 11.3852 7.56258 11.1964 7.56258 10.9823C7.56258 10.9686 7.56123 10.9553 7.55859 10.9419C7.66207 10.9605 7.74023 11.0511 7.74023 11.1599C7.74023 11.2834 7.77662 11.3985 7.83967 11.4944Z" fill="#E7E7E7"/>
<path d="M7.95326 12.0159V12.1385C7.78275 12.0687 7.63486 11.9555 7.52295 11.813C7.64682 11.9111 7.79336 11.9817 7.95326 12.0159Z" fill="#E7E7E7"/>
<path d="M8.5752 8.09016V8.33438C8.51836 8.31082 8.45883 8.29266 8.39754 8.2793V7.9125C8.39754 7.89873 8.39619 7.88543 8.39355 7.87207C8.43838 7.88004 8.47881 7.90184 8.50992 7.93336C8.55035 7.97338 8.5752 8.02887 8.5752 8.09016Z" fill="#E7E7E7"/>
<path d="M8.68867 10.6485C8.65316 10.6249 8.61496 10.6049 8.575 10.5894C8.50615 10.5623 8.43156 10.5477 8.35293 10.5477C8.27652 10.5477 8.2024 10.5397 8.13092 10.5241C7.88576 10.4717 7.67219 10.334 7.52295 10.1436C7.64687 10.2417 7.79342 10.3123 7.95326 10.3465C8.02475 10.3621 8.09893 10.3701 8.17533 10.3701C8.25391 10.3701 8.32855 10.3847 8.39734 10.4118C8.5177 10.4584 8.61936 10.5419 8.68867 10.6485Z" fill="#E7E7E7"/>
<path d="M8.68818 8.97815C8.65267 8.95459 8.61447 8.93461 8.57451 8.91908C8.50566 8.89201 8.43107 8.87736 8.35244 8.87736C8.27387 8.87736 8.19922 8.89201 8.13043 8.91908C7.90174 9.00791 7.73961 9.23039 7.73961 9.4902C7.73961 9.61365 7.776 9.72867 7.8391 9.82459C7.67211 9.71537 7.56201 9.52658 7.56201 9.31254C7.56201 9.05274 7.72408 8.83025 7.95283 8.74143C8.02168 8.71436 8.09627 8.69971 8.1749 8.69971C8.25348 8.69971 8.32812 8.71436 8.39691 8.74143C8.51721 8.78807 8.61886 8.87156 8.68818 8.97815Z" fill="#E7E7E7"/>
<path d="M9.40977 11.16C9.40977 11.6668 9.05141 12.0913 8.57486 12.1934V12.5602C8.57486 12.6828 8.47537 12.7823 8.35279 12.7823C8.24398 12.7823 8.1534 12.7041 8.13477 12.6006C8.14807 12.6033 8.16143 12.6046 8.1752 12.6046C8.29777 12.6046 8.39721 12.5051 8.39721 12.3825V12.0157C8.87369 11.9136 9.23211 11.489 9.23211 10.9824C9.23211 10.7359 9.14726 10.509 9.00518 10.3296C9.25121 10.5228 9.40977 10.8229 9.40977 11.16Z" fill="#E7E7E7"/>
<path d="M9.40976 9.49012C9.40976 9.61269 9.31027 9.71213 9.18775 9.71213C9.07854 9.71213 8.98836 9.63396 8.96973 9.53049C8.98262 9.53312 8.99639 9.53447 9.01016 9.53447C9.13273 9.53447 9.23217 9.43498 9.23217 9.31246C9.23217 9.06601 9.14732 8.83908 9.00523 8.65967C9.25121 8.85285 9.40976 9.15303 9.40976 9.49012Z" fill="#E7E7E7"/>
<path d="M9.00555 10.3296C9.14764 10.509 9.23248 10.736 9.23248 10.9824C9.23248 11.4891 8.87412 11.9136 8.39758 12.0158V12.3826C8.39758 12.5051 8.29809 12.6046 8.17557 12.6046C8.1618 12.6046 8.1485 12.6033 8.13514 12.6006C8.03166 12.582 7.9535 12.4914 7.9535 12.3826V12.0158C7.79365 11.9816 7.64711 11.911 7.52318 11.8129C7.27715 11.6197 7.11865 11.3195 7.11865 10.9824C7.11865 10.8598 7.21814 10.7604 7.34072 10.7604C7.44953 10.7604 7.54012 10.8386 7.55875 10.942C7.56139 10.9553 7.56273 10.9687 7.56273 10.9825C7.56273 11.1965 7.67289 11.3852 7.83983 11.4945C7.87533 11.5181 7.91354 11.538 7.9535 11.5536C8.02234 11.5806 8.09693 11.5953 8.17557 11.5953C8.25414 11.5953 8.32879 11.5806 8.39758 11.5536C8.62627 11.4647 8.7884 11.2423 8.7884 10.9825C8.7884 10.859 8.75201 10.744 8.68891 10.6481C8.61965 10.5415 8.51793 10.458 8.39758 10.4113C8.32873 10.3843 8.25414 10.3696 8.17557 10.3696C8.09916 10.3696 8.02504 10.3617 7.9535 10.3461C7.79365 10.3119 7.64711 10.2412 7.52318 10.1431C7.27715 9.94992 7.11865 9.64975 7.11865 9.31266C7.11865 8.80594 7.47701 8.38142 7.95356 8.2793V7.9125C7.95356 7.78992 8.05305 7.69043 8.17563 7.69043C8.23692 7.69043 8.2924 7.71527 8.33236 7.7557C8.36389 7.78682 8.38563 7.82719 8.39365 7.87207C8.39629 7.88537 8.39764 7.89873 8.39764 7.9125V8.2793C8.45893 8.2926 8.51846 8.31082 8.57529 8.33437C8.7458 8.4041 8.89369 8.51736 9.00561 8.65986C9.1477 8.83928 9.23254 9.06621 9.23254 9.31266C9.23254 9.43523 9.13305 9.53467 9.01053 9.53467C8.99676 9.53467 8.98299 9.53332 8.9701 9.53068C8.86662 9.51205 8.78846 9.42146 8.78846 9.31266C8.78846 9.1892 8.75207 9.07418 8.68897 8.97826C8.61971 8.87168 8.51799 8.78818 8.39764 8.74154C8.32879 8.71447 8.2542 8.69982 8.17563 8.69982C8.09705 8.69982 8.0224 8.71447 7.95356 8.74154C7.72486 8.83037 7.56273 9.05285 7.56273 9.31266C7.56273 9.5267 7.67289 9.71543 7.83983 9.82471C7.87533 9.84826 7.91354 9.86824 7.9535 9.88377C8.02234 9.91084 8.09693 9.92549 8.17557 9.92549C8.2515 9.92549 8.32609 9.93346 8.39758 9.94904C8.64274 10.0014 8.85637 10.1391 9.00555 10.3296Z" fill="white"/>
<path d="M20.6863 27.6746L29.4846 23.7536C30.348 23.3689 30.736 22.357 30.3512 21.4936L23.9403 7.10799C23.5555 6.24467 22.5436 5.85666 21.6803 6.24139L12.8819 10.1624C12.0186 10.5471 11.6306 11.559 12.0153 12.4223L18.4263 26.808C18.811 27.6713 19.8229 28.0593 20.6863 27.6746Z" fill="#2294D3"/>
<path d="M18.2106 26.3242L26.4605 22.6476C27.3239 22.2629 27.7119 21.2509 27.3271 20.3876L21.1319 6.48584L12.8819 10.1624C12.0186 10.5471 11.6306 11.5591 12.0153 12.4224L18.2106 26.3242Z" fill="#26A6FE"/>
<path d="M14.8135 9.2959L18.1059 7.82817L25.9091 25.3326L22.6166 26.8003L14.8135 9.2959Z" fill="#57565C"/>
<path d="M24.8293 13.5892L23.6422 10.9254C23.5493 10.7169 23.3048 10.6231 23.0963 10.7161L22.3922 11.0298C22.1837 11.1228 22.0899 11.3672 22.1829 11.5758L23.37 14.2395C23.4629 14.4481 23.7074 14.5418 23.9159 14.4489L24.62 14.1351C24.8285 14.0422 24.9222 13.7978 24.8293 13.5892Z" fill="white"/>
<path d="M28.5985 22.0465L27.5631 19.7233C27.4702 19.5147 27.2257 19.421 27.0172 19.5139L26.3131 19.8277C26.1046 19.9206 26.0108 20.1651 26.1038 20.3736L27.1391 22.6968C27.232 22.9054 27.4765 22.9991 27.685 22.9062L28.3891 22.5924C28.5977 22.4995 28.6914 22.2551 28.5985 22.0465Z" fill="white"/>
<path d="M16.0572 19.9474L14.1476 15.5527C14.0502 15.3285 14.153 15.0678 14.3772 14.9704C14.6014 14.8729 14.8621 14.9757 14.9596 15.2L16.8692 19.5946C16.9666 19.8188 16.8638 20.0795 16.6396 20.177C16.4154 20.2744 16.1547 20.1716 16.0572 19.9474Z" fill="white"/>
<path d="M17.262 21.5814C17.4862 21.4839 17.5888 21.2231 17.4913 20.999C17.3938 20.7748 17.133 20.6721 16.9088 20.7697C16.6846 20.8672 16.582 21.128 16.6795 21.3522C16.7771 21.5763 17.0379 21.679 17.262 21.5814Z" fill="white"/>
</g>
<defs>
<clipPath id="clip0_4121:10321">
<rect width="30" height="30" fill="white" transform="translate(0.5)"/>
</clipPath>
</defs>
</svg>
