<svg width="40" height="40" viewBox="0 0 40 40" fill="none" xmlns="http://www.w3.org/2000/svg">
<circle cx="20" cy="20" r="20" fill="white"/>
<circle cx="19.9999" cy="19.9999" r="17.3913" fill="#DEEEE2"/>
<path d="M21.8767 13.4138V21.0587C21.8767 21.7303 21.3188 22.2984 20.6593 22.2984H14.2173L9.44921 24.8295V22.2984H9.04343C8.384 22.2984 7.82605 21.7302 7.82605 21.0587V13.4138C7.82605 12.7423 8.384 12.1741 9.04343 12.1741H20.71C21.3694 12.1741 21.8767 12.7423 21.8767 13.4138Z" fill="#019748"/>
<path d="M11.123 18.5803C11.8514 18.5803 12.4418 17.979 12.4418 17.2373C12.4418 16.4956 11.8514 15.8943 11.123 15.8943C10.3947 15.8943 9.8042 16.4956 9.8042 17.2373C9.8042 17.979 10.3947 18.5803 11.123 18.5803Z" fill="white"/>
<path d="M14.8768 18.5809C15.6052 18.5809 16.1956 17.9796 16.1956 17.2378C16.1956 16.4961 15.6052 15.8948 14.8768 15.8948C14.1484 15.8948 13.558 16.4961 13.558 17.2378C13.558 17.9796 14.1484 18.5809 14.8768 18.5809Z" fill="white"/>
<path d="M18.6302 18.5809C19.3586 18.5809 19.949 17.9796 19.949 17.2378C19.949 16.4961 19.3586 15.8948 18.6302 15.8948C17.9019 15.8948 17.3114 16.4961 17.3114 17.2378C17.3114 17.9796 17.9019 18.5809 18.6302 18.5809Z" fill="white"/>
<path d="M18.123 16.4619V24.0552C18.123 24.7267 18.681 25.2949 19.3404 25.2949H25.8331L30.6012 27.826V25.2949H30.9563C31.6158 25.2949 32.1737 24.7267 32.1737 24.0552V16.4619C32.1737 15.7904 31.6158 15.2222 30.9563 15.2222H19.2897C18.6303 15.2222 18.123 15.7904 18.123 16.4619Z" fill="#FFD15C"/>
<path d="M28.8759 21.6262C29.6043 21.6262 30.1948 21.025 30.1948 20.2833C30.1948 19.5416 29.6043 18.9403 28.8759 18.9403C28.1476 18.9403 27.5571 19.5416 27.5571 20.2833C27.5571 21.025 28.1476 21.6262 28.8759 21.6262Z" fill="white"/>
<path d="M25.1225 21.6262C25.8509 21.6262 26.4413 21.025 26.4413 20.2833C26.4413 19.5416 25.8509 18.9403 25.1225 18.9403C24.3942 18.9403 23.8037 19.5416 23.8037 20.2833C23.8037 21.025 24.3942 21.6262 25.1225 21.6262Z" fill="white"/>
<path d="M21.369 21.6267C22.0974 21.6267 22.6878 21.0255 22.6878 20.2838C22.6878 19.5421 22.0974 18.9408 21.369 18.9408C20.6406 18.9408 20.0502 19.5421 20.0502 20.2838C20.0502 21.0255 20.6406 21.6267 21.369 21.6267Z" fill="white"/>
</svg>
